<svg width="32" height="32" viewBox="0 0 32 32" fill="none" xmlns="http://www.w3.org/2000/svg">
<circle cx="16" cy="16" r="16" fill="#429FD9"/>
<g clip-path="url(#clip0)">
<path d="M15.2396 25.9996C14.6921 25.9175 14.1386 25.8607 13.5972 25.7533C12.186 25.4754 10.9269 24.8439 9.78945 23.9472C8.35393 22.8105 7.3077 21.3643 6.65077 19.615C6.01816 17.9289 5.84176 16.1859 6.12765 14.3987C6.57777 11.5822 7.95247 9.36555 10.2031 7.73625C11.4318 6.85213 12.7943 6.31535 14.2785 6.10695C16.5291 5.78488 18.6277 6.23325 20.5741 7.42681C21.7542 8.15305 22.7213 9.11295 23.5121 10.2749C23.5486 10.3318 23.5729 10.4012 23.6216 10.5023C23.0315 10.5717 22.478 10.6538 21.9184 10.6917C21.8211 10.698 21.6873 10.5844 21.6082 10.4896C20.2882 8.9677 18.652 8.02674 16.7055 7.76151C12.7092 7.21209 9.1386 9.74446 8.00722 13.4956C6.72984 17.7015 8.81622 22.16 12.7943 23.764C15.9513 25.0397 19.6982 23.9851 21.815 21.238C21.8758 21.1559 21.9306 21.0548 22.0097 20.998C22.0826 20.9475 22.2043 20.897 22.2773 20.9285C22.7152 21.1243 23.1471 21.339 23.6094 21.5664C23.5121 21.7116 23.3965 21.9011 23.2627 22.0779C21.8697 23.9345 20.0632 25.1407 17.8673 25.7154C17.4111 25.8354 16.9306 25.8607 16.4622 25.9364C16.3953 25.9491 16.3284 25.9743 16.2676 25.9933C15.9269 25.9996 15.5802 25.9996 15.2396 25.9996Z" fill="white"/>
<path d="M15.9575 18.6365C16.1703 18.6365 16.3589 18.6492 16.5475 18.6365C16.736 18.6239 16.8212 18.6807 16.8151 18.8954C16.803 19.3375 16.809 19.7796 16.8151 20.2153C16.8151 20.3858 16.7604 20.4616 16.584 20.4616C15.9088 20.4553 15.2275 20.4679 14.5523 20.449C14.455 20.449 14.3334 20.3227 14.2847 20.2216C14.2178 20.089 14.2117 19.9311 14.1752 19.7732C13.938 19.9311 13.719 20.089 13.4879 20.2279C12.8857 20.5816 12.2287 20.6384 11.5596 20.5626C11.146 20.5121 10.7202 20.43 10.3431 20.2658C9.61317 19.9501 9.22388 19.3501 9.22388 18.5039C9.22388 17.2598 9.88081 16.4515 11.0487 16.1736C11.9307 15.9652 12.8005 15.9273 13.6703 16.1736C13.7251 16.1863 13.792 16.1736 13.8467 16.1736C14.011 15.7 13.7555 15.1379 13.2141 15.0432C12.8674 14.9801 12.5146 14.9548 12.1679 14.9295C11.9064 14.9106 11.6813 14.9674 11.6813 15.3211C11.6813 15.3905 11.6448 15.46 11.6083 15.5611C11.0852 15.5611 10.5499 15.5674 10.0207 15.5484C9.95989 15.5484 9.8504 15.4032 9.84432 15.3211C9.82607 14.8096 9.81998 14.2917 9.83823 13.7802C9.84431 13.6918 9.97813 13.5592 10.0755 13.5276C11.1703 13.1866 12.2896 13.1171 13.421 13.2876C13.8407 13.3508 14.2665 13.4644 14.6497 13.6539C15.5864 14.1086 15.921 14.9548 15.927 15.9779C15.9331 16.742 15.927 17.5061 15.927 18.2766C15.9392 18.3839 15.9514 18.4976 15.9575 18.6365ZM12.32 18.927C13.0499 18.8828 13.7008 18.4976 13.9258 17.9734C14.0049 17.7777 13.9502 17.6829 13.7859 17.6514C13.3419 17.5693 12.8978 17.4619 12.4477 17.4556C12.1436 17.4556 11.8212 17.5819 11.5292 17.7019C11.3163 17.7903 11.1582 18.024 11.2433 18.2576C11.3103 18.4471 11.4806 18.6428 11.657 18.7439C11.8516 18.8639 12.101 18.8765 12.32 18.927Z" fill="white"/>
<path d="M24.0293 15.1696C24.0293 16.1484 24.0232 17.083 24.0293 18.0177C24.0353 18.4408 24.4672 18.7629 24.9052 18.6871C24.9964 18.6744 25.0937 18.6744 25.1728 18.6302C25.477 18.4724 25.5743 18.6429 25.6412 18.9144C25.7263 19.2554 25.8298 19.5901 25.921 19.9312C25.9453 20.0259 25.9636 20.1269 25.994 20.3101C25.5682 20.3858 25.1667 20.4995 24.7714 20.5121C24.2908 20.5248 23.8042 20.4869 23.3358 20.3922C22.7275 20.2722 22.2531 19.6028 22.1436 18.9649C21.9429 17.8472 22.0706 16.7294 22.028 15.6116C22.022 15.479 22.028 15.3464 22.028 15.1759C21.7056 15.1759 21.4015 15.1885 21.1035 15.1696C21.0244 15.1632 20.8906 15.0622 20.8845 14.999C20.8662 14.4875 20.8723 13.976 20.8723 13.4329C21.2616 13.4329 21.6205 13.4329 22.022 13.4329C22.022 12.9466 22.0341 12.4919 22.0159 12.0373C22.0037 11.7847 22.0524 11.6584 22.3322 11.6394C22.8005 11.6078 23.2689 11.5321 23.7373 11.4689C23.9441 11.4436 24.0293 11.5131 24.0232 11.7405C24.011 12.2836 24.0171 12.8267 24.0171 13.414C24.5159 13.414 24.9964 13.4266 25.477 13.4076C25.7203 13.395 25.7933 13.4771 25.7811 13.7234C25.7628 14.1212 25.7689 14.5191 25.7811 14.917C25.7872 15.1127 25.7142 15.1759 25.5317 15.1696C25.0512 15.1632 24.5585 15.1696 24.0293 15.1696Z" fill="white"/>
<path d="M20.9391 18.6366C20.9391 19.1987 20.933 19.7102 20.9391 20.2217C20.9391 20.3985 20.8783 20.4617 20.708 20.4617C19.6496 20.4554 18.5851 20.4554 17.5267 20.4617C17.3138 20.4617 17.2225 20.3796 17.2347 20.1396C17.253 19.7418 17.253 19.3439 17.2347 18.9461C17.2225 18.6808 17.3199 18.6114 17.551 18.6303C17.7396 18.6429 17.9342 18.6366 18.1532 18.6366C18.1532 16.5147 18.1532 14.4118 18.1532 12.2773C17.9768 12.2773 17.77 12.271 17.5632 12.2773C17.3746 12.2836 17.2895 12.2141 17.2955 12.0057C17.3077 11.5763 17.3077 11.1469 17.2955 10.7175C17.2895 10.5343 17.3381 10.4459 17.5328 10.4522C18.3174 10.4585 19.1082 10.4585 19.8929 10.4522C20.1544 10.4522 20.1484 10.6101 20.1484 10.7996C20.1484 13.2435 20.1484 15.6875 20.1484 18.1251C20.1484 18.7377 20.1605 18.6303 20.6411 18.6366C20.7262 18.6366 20.8175 18.6366 20.9391 18.6366Z" fill="white"/>
</g>
<defs>
<clipPath id="clip0">
<rect x="6" y="6" width="20" height="20" fill="white"/>
</clipPath>
</defs>
</svg>
