<svg width="222" height="184" viewBox="0 0 222 184" fill="none" xmlns="http://www.w3.org/2000/svg">
<g clip-path="url(#clip0)">
<g clip-path="url(#clip1)">
<path d="M91.8823 181.895L70.0628 134.013L89.157 125.599L83.7753 114.534L94.3505 110.033L99.7322 121.098L110.797 115.716L95.5345 77.822L154.873 51.9916L160.255 63.0566L202.164 43.6829L220.167 85.9836L164.255 110.836L160.537 103.002L136.155 113.667L152.789 151.17L153.571 153.912L91.8823 181.895Z" fill="white"/>
<path d="M113.966 94.5445C120.873 92.0411 127.627 89.1324 134.192 85.8333C141.163 82.6018 148.91 79.8411 155.243 75.4688C155.43 75.3733 155.574 75.2106 155.646 75.0132C155.719 74.8157 155.714 74.5981 155.634 74.4036C155.553 74.209 155.403 74.052 155.212 73.9636C155.021 73.8753 154.805 73.8622 154.605 73.9269C147.628 75.9358 140.977 79.8219 134.458 82.9342C127.287 86.0629 120.311 89.6225 113.569 93.5938C113.474 93.6644 113.405 93.765 113.374 93.8793C113.343 93.9937 113.351 94.1153 113.397 94.2248C113.443 94.3342 113.524 94.4252 113.627 94.4831C113.73 94.5411 113.85 94.5627 113.966 94.5445Z" fill="black"/>
<path d="M132.467 132.362C126.134 136.086 119.587 139.433 112.859 142.387C105.925 145.696 98.858 149.903 91.4512 151.994C91.2586 152.076 91.0415 152.084 90.8433 152.013C90.6451 151.943 90.4803 151.801 90.3818 151.615C90.2833 151.429 90.2583 151.213 90.3117 151.01C90.3652 150.807 90.4933 150.631 90.6703 150.519C96.6674 146.425 103.902 143.78 110.456 140.743C117.439 137.214 124.629 134.111 131.988 131.449C132.103 131.421 132.224 131.433 132.332 131.482C132.44 131.531 132.529 131.614 132.584 131.719C132.639 131.824 132.657 131.945 132.636 132.061C132.615 132.178 132.555 132.284 132.467 132.362Z" fill="black"/>
<path d="M120.626 95.9552C132.945 90.5956 145.832 86.353 157.719 80.0729C157.899 79.96 158.033 79.7867 158.097 79.5839C158.161 79.381 158.151 79.1618 158.069 78.9654C157.987 78.7689 157.838 78.608 157.648 78.5113C157.459 78.4146 157.242 78.3885 157.036 78.4375C144.227 82.6594 132.221 89.2034 120.116 95.0554C119.498 95.345 120.023 96.2198 120.626 95.9552Z" fill="black"/>
<path d="M129.307 138.392C117.323 144.463 105.837 151.685 93.4191 156.837C93.2176 156.903 92.9988 156.896 92.8017 156.816C92.6047 156.736 92.4422 156.588 92.3432 156.4C92.2442 156.211 92.2153 155.994 92.2614 155.786C92.3076 155.579 92.426 155.395 92.5953 155.267C104.015 148.093 116.712 143.017 128.939 137.425C129.556 137.133 129.895 138.096 129.307 138.392Z" fill="black"/>
<path d="M121.605 100.785L121.024 101.212C120.604 101.534 120.823 102.363 121.422 102.163C131.747 98.9268 141.681 94.5515 151.04 89.1171C151.784 88.6677 151.316 87.2921 150.443 87.6491C140.427 91.5357 130.724 96.6067 121.024 101.212L121.637 102.022L122.208 101.555C122.618 101.193 122.04 100.438 121.605 100.785Z" fill="black"/>
<path d="M132.402 142.226L133.102 142.051C133.618 141.933 134.117 142.63 133.581 142.963C124.504 148.853 114.8 153.715 104.645 157.459C103.824 157.746 103.063 156.508 103.895 156.063C113.276 150.827 123.369 146.586 133.102 142.051L133.335 143.039L132.611 143.181C132.072 143.266 131.858 142.339 132.402 142.226Z" fill="black"/>
<path d="M202.821 43.8082C202.697 43.5309 202.573 43.2537 202.295 43.3783C200.102 43.6959 197.88 44.6924 195.782 45.9662C190.505 48.333 184.95 50.8244 179.673 53.1913C173.563 55.9318 166.926 58.2425 160.911 61.9393C159.419 58.6126 158.051 55.5632 156.003 52.4857C156.435 51.9594 155.659 50.9751 154.702 51.0716C144.761 54.1981 135.164 58.8353 125.29 63.597C115.693 68.2342 105.694 72.7187 95.8483 76.8015C95.5706 76.9261 95.6949 77.2033 95.4172 77.3278L95.2638 77.7296C99.0679 90.6747 103.983 103.121 109.578 115.596C106.274 116.412 103.066 118.184 100.01 119.555C98.5183 116.228 97.0263 112.901 95.6586 109.852C95.5343 109.575 95.5343 109.575 95.2566 109.699C95.1322 109.422 94.7302 109.269 94.3281 109.117C92.4129 109.31 90.593 110.459 88.5244 111.054C86.858 111.801 85.1915 112.548 83.9271 113.449C83.6493 113.573 83.7736 113.85 83.7736 113.85C83.4959 113.975 83.2181 114.099 83.4668 114.654C85.3609 118.133 86.9772 121.737 88.5935 125.341C88.5935 125.341 88.5935 125.341 88.3158 125.465L87.9137 125.313C82.081 127.929 75.9996 129.99 70.5399 133.438L70.2622 133.563C69.9844 133.687 69.9844 133.687 69.831 134.089C72.4791 142.225 76.3625 150.14 79.9682 158.179C83.4495 165.941 86.624 174.507 90.6608 182.02C90.7851 182.297 91.1872 182.45 91.1872 182.45L91.5893 182.602C102.363 179.102 112.669 173.814 122.946 169.205C133.222 164.596 143.623 160.264 153.651 155.1C154.331 155.128 155.04 154.477 154.389 153.77C154.265 153.493 154.265 153.493 154.141 153.216L154.294 152.814C151.866 145.912 148.48 139.106 145.371 132.175C142.76 126.354 140.303 120.13 137.261 114.835C140.038 113.589 142.969 111.942 145.746 110.696C150.468 108.578 155.19 106.461 159.634 104.468C160.073 106.935 161.039 109.831 162.464 111.523C162.589 111.8 162.991 111.953 163.269 111.828C163.393 112.105 163.671 111.981 163.671 111.981C168.086 110.667 172.405 108.396 176.571 106.528C181.571 104.285 186.57 102.043 191.292 99.9254C196.014 97.8077 200.736 95.69 205.457 93.5723C210.457 91.3301 215.58 89.365 220.054 86.6929L220.331 86.5683C220.609 86.4437 221.165 86.1946 220.916 85.6402C218.363 78.4606 214.977 71.6546 211.869 64.7242C209.316 57.5445 206.763 50.3649 202.821 43.8082ZM205.708 71.816C207.324 75.4198 208.787 79.4255 210.959 82.7802C209.724 83.0012 208.459 83.9013 207.348 84.3996C201.669 86.6138 195.683 89.6315 190.128 92.1229C183.74 94.9881 177.227 97.576 171.365 100.871C171.241 100.594 170.992 100.039 170.744 99.4849L170.619 99.2076C172.286 98.4602 173.828 97.4356 175.37 96.4109C175.648 96.2864 175.524 96.0091 175.524 96.0091C175.801 95.8846 175.955 95.4828 175.831 95.2056C173.526 88.5804 170.14 81.7745 167.281 75.3984C172.96 73.1843 178.515 70.6928 183.792 68.326C189.625 65.71 195.304 63.4958 200.888 60.3254C202.073 64.4556 203.967 67.9349 205.708 71.816ZM89.9503 112.745C91.7411 112.275 93.5319 111.805 95.0741 110.78C96.7275 116.698 98.783 122.769 101.394 128.59L101.241 128.992C100.963 129.117 100.561 128.964 100.283 129.089C99.7566 128.659 99.2011 128.908 99.172 129.587C99.0186 129.989 98.9895 130.668 98.8361 131.07C97.9076 130.487 97.3812 130.057 97.1325 129.503C96.8838 128.948 96.3283 129.197 95.7728 129.447C95.0639 130.098 94.4794 131.026 93.8948 131.954C91.1594 125.855 88.1464 119.881 84.8556 114.031C86.493 113.963 88.1595 113.215 89.9503 112.745ZM143.858 132.521C146.842 139.174 149.271 146.077 152.964 152.079C152.81 152.481 153.059 153.035 153.183 153.312C142.658 157.367 132.783 162.129 122.507 166.738C112.508 171.222 101.982 175.277 92.3564 180.593C89.7083 172.457 85.2694 164.792 81.9124 157.307C78.5554 149.822 75.6296 141.811 71.315 134.422C77.1186 132.485 83.1048 129.468 88.6597 126.976C88.9375 126.852 88.9375 126.852 88.8131 126.574C88.8131 126.574 88.8131 126.574 89.0909 126.45C90.3342 129.222 91.5775 131.994 93.0986 134.642C93.4716 135.473 94.7069 135.252 95.0138 134.449C95.474 133.243 96.0586 132.315 96.7966 130.985C97.4473 131.692 97.9738 132.122 98.6245 132.829C99.0266 132.982 99.7064 133.01 99.8598 132.608C100.167 131.805 100.196 131.126 100.627 130.599C101.431 130.905 101.987 130.656 102.542 130.406C102.666 130.684 102.666 130.684 102.791 130.961C102.915 131.238 103.317 131.391 103.595 131.266C104.15 131.017 104.304 130.615 104.333 129.936C103.367 127.039 102.526 124.42 101.56 121.523C101.56 121.523 101.56 121.523 101.838 121.399C104.893 120.028 108.351 118.811 111.157 116.886C112.028 118.826 113.022 121.044 114.17 122.86C114.419 123.415 114.821 123.567 115.099 123.443C115.223 123.72 115.501 123.595 115.779 123.471C123.095 121.188 130.039 118.074 136.858 114.682C138.081 121.127 141.247 126.699 143.858 132.521ZM115.157 122.085C108.567 107.392 102.658 92.7275 96.6234 77.7858C106.689 74.9365 116.161 70.0221 125.48 65.5095C135.355 60.7477 145.229 55.986 155.448 52.7349C157.599 59.7619 161.109 66.845 164.093 73.4982C167.326 80.7059 170.252 88.7172 174.317 95.5512C169.5 96.7127 165.027 99.3848 160.583 101.378C155.584 103.62 150.307 105.987 145.307 108.229C135.308 112.714 124.659 116.491 115.157 122.085ZM205.976 91.009C200.976 93.2512 195.977 95.4935 191.255 97.6112C186.533 99.7289 181.812 101.847 177.09 103.964C172.924 105.833 168.355 107.549 164.438 109.972C164.094 108.461 163.194 107.2 162.697 106.091C162.324 105.259 161.827 104.15 161.454 103.318L161.731 103.194C164.231 102.073 167.009 100.827 169.508 99.7059C169.633 99.9831 169.633 99.9831 169.757 100.26C170.006 100.815 170.379 101.646 171.183 101.952L171.585 102.104C178.222 99.7937 184.764 96.5268 191.152 93.6617C197.54 90.7966 204.455 88.3613 210.47 84.6645C210.47 84.6645 210.47 84.6646 210.748 84.54C211.303 84.2908 211.581 84.1663 212.012 83.6399C212.414 83.7926 212.845 83.2662 212.721 82.989C211.536 78.8588 209.517 75.1023 207.777 71.2212C206.036 67.3401 204.295 63.4591 202.401 59.9798C202.832 59.4534 202.584 58.899 201.626 58.9955C195.669 61.3343 189.559 64.0748 183.726 66.6908C178.171 69.1822 172.492 71.3964 167.463 74.3176C167.214 73.7632 166.966 73.2088 166.717 72.6543C165.225 69.3277 163.733 66.0011 162.519 62.5499C169.002 60.641 175.142 57.2214 181.53 54.3563C186.807 51.9895 192.487 49.7753 197.639 47.1312C199.584 46.2592 199.861 45.8033 201.444 45.6227C203.595 52.6497 206.938 59.3388 209.922 65.9921C212.906 72.6454 217.699 80.7009 219.511 85.3093C212.571 88.4017 210.42 89.0158 205.976 91.009Z" fill="black"/>
<path d="M175.265 58.2033C173.627 58.2718 172.458 60.128 172.927 61.9159C173.519 63.981 175.654 65.0215 177.598 64.1495C179.542 63.2775 180.587 61.144 179.439 59.3281C178.415 57.7893 176.654 57.5805 175.265 58.2033ZM176.976 62.7634C176.143 63.1371 174.937 62.6792 174.44 61.5703C174.067 60.7386 174.373 59.9351 174.929 59.6859C174.929 59.6859 175.331 59.8386 175.609 59.714C176.442 59.3403 177.802 59.3965 178.452 60.1036C178.672 61.337 178.087 62.2651 176.976 62.7634Z" fill="black"/>
</g>
<g filter="url(#filter0_d)">
<g clip-path="url(#clip2)">
<path d="M41.7671 122.798L22.3017 39.0614L79.7895 3.74809L81.5219 10.9133L94.5114 7.43807L96.6873 15.0537L98.9186 15.518L111.399 20.0845L105.394 45.0691L121.481 103.302L41.7671 122.798Z" fill="white" stroke="black"/>
<path d="M86.8247 7.62588C85.0079 9.33841 83.3969 11.2582 82.0243 13.3462C81.5171 14.1344 82.7495 15.1395 83.3457 14.37C84.7792 12.4385 86.3114 10.5829 87.9362 8.81059C88.0663 8.64853 88.1313 8.44353 88.1186 8.23566C88.1059 8.02779 88.0165 7.83198 87.8677 7.68649C87.719 7.54101 87.5216 7.45631 87.3142 7.44893C87.1067 7.44156 86.9042 7.51205 86.7461 7.64662L86.8247 7.62588Z" fill="#C6C6C6"/>
<path d="M90.3964 6.89529C88.0936 9.487 85.7319 12.0943 83.6188 14.8471C82.9451 15.7214 84.1705 16.9394 84.8743 16.0994C87.232 13.5565 89.429 10.8027 91.571 8.00003C92.2158 7.17555 91.0505 6.02614 90.3756 6.81633L90.3964 6.89529Z" fill="#C6C6C6"/>
<path d="M93.7714 7.6519C90.821 11.2166 87.7959 14.7377 84.9015 18.4354C84.1885 19.3201 85.355 20.5537 86.1819 19.7023C89.4677 16.2597 92.48 12.5643 95.1912 8.64976C95.7429 7.87094 94.496 6.89081 93.8697 7.62597L93.7714 7.6519Z" fill="#C6C6C6"/>
<path d="M96.3983 10.675L96.3619 10.5368L95.975 11.4622L95.6997 11.5348C95.4788 11.2552 95.2828 10.9903 95.0815 10.7056C95.0763 11.4036 93.5681 12.9413 93.0587 13.5612L90.3228 17.3016C89.0147 19.0399 86.521 21.3864 86.0324 23.5208C85.9817 23.6827 85.9777 23.8558 86.021 24.02C86.0643 24.1842 86.1531 24.3328 86.2771 24.4486L86.4419 24.5951C87.1954 25.2197 88.4966 24.4122 87.8575 23.504C88.8601 22.4615 89.7815 21.3433 90.6137 20.1594L93.5705 15.9808C94.6305 14.4979 97.0044 12.4152 96.7459 10.4778C96.7091 10.3352 96.6363 10.2045 96.5346 10.0982C96.4329 9.99189 96.3057 9.91361 96.1653 9.87089C95.9976 9.80808 95.8172 9.78807 95.6401 9.81265C95.463 9.83723 95.2949 9.90563 95.1509 10.0117C94.9947 10.1072 94.8732 10.2506 94.8045 10.4208C94.7358 10.5909 94.7234 10.7788 94.7692 10.9568L94.8057 11.095C95.0815 12.1411 96.6297 11.7118 96.418 10.6698L96.3983 10.675Z" fill="#C6C6C6"/>
<path d="M98.3841 13.7402C94.5824 19.2606 90.4106 24.4141 86.2099 29.6174C85.4483 30.5571 86.7102 31.9133 87.6002 30.9819C92.2405 25.9467 96.3894 20.4767 99.9901 14.6468C100.627 13.6343 99.0567 12.7818 98.3789 13.7205L98.3841 13.7402Z" fill="#C6C6C6"/>
<path d="M105.442 15.0668C98.8368 21.1072 93.0126 27.9552 88.1056 35.4509C87.5407 36.3388 88.8424 37.3678 89.5618 36.587C95.3506 29.9093 100.676 22.9105 106.683 16.344C106.849 16.1799 106.943 15.9563 106.945 15.7223C106.946 15.4884 106.855 15.2632 106.691 15.0965C106.527 14.9297 106.304 14.835 106.071 14.8332C105.838 14.8313 105.613 14.9225 105.448 15.0866L105.442 15.0668Z" fill="#C6C6C6"/>
<path d="M106.734 18.6106C103.26 22.8202 99.8602 27.0734 96.4459 31.3516C93.4573 34.6811 90.7162 38.2264 88.2446 41.9588C87.5651 43.1302 89.2445 43.9963 90.0101 42.9921C95.97 35.1293 102.264 27.4952 108.075 19.6292C108.652 18.8649 107.355 17.8557 106.729 18.5909L106.734 18.6106Z" fill="#C6C6C6"/>
<path d="M105.205 27.2473C101.311 32.4965 97.4563 37.7353 93.4602 42.7579C91.9567 44.6322 87.206 48.2283 88.7431 50.9475C89.3296 51.9751 90.6712 51.2413 90.5434 50.1983C90.4156 49.1554 94.2167 45.3874 95.0362 44.348C96.2286 42.8091 97.4066 41.2951 98.5741 39.7416C101.428 35.9701 104.227 32.1498 106.747 28.1496C107.39 27.1569 105.853 26.2742 105.205 27.2473Z" fill="#C6C6C6"/>
<path d="M101.038 38.7965C97.2859 45.0637 92.7318 50.7614 88.9 56.9652C88.3206 57.878 89.6565 58.8769 90.406 58.1303C95.0825 52.4219 99.154 46.24 102.555 39.6843C102.672 39.4827 102.704 39.2426 102.644 39.0168C102.585 38.7909 102.438 38.5979 102.237 38.4802C102.036 38.3625 101.797 38.3297 101.572 38.389C101.347 38.4483 101.155 38.5949 101.038 38.7965Z" fill="#C6C6C6"/>
<path d="M99.7345 48.0492C96.7533 52.5664 94.0756 57.2784 91.7194 62.154C91.2262 63.2341 92.7142 64.1718 93.3358 63.1001C96.0891 58.4684 98.5034 53.5884 101.227 48.9224C101.796 47.9702 100.313 47.0522 99.7345 48.0492Z" fill="#C6C6C6"/>
<path d="M99.7223 55.4204C96.7102 59.4159 94.2297 63.7887 92.3433 68.4286C91.9576 69.4381 93.611 70.2055 94.0753 69.1752C96.1803 64.7496 98.5616 60.4621 101.205 56.3383C101.858 55.385 100.311 54.4629 99.6829 55.4307L99.7223 55.4204Z" fill="#C6C6C6"/>
<path d="M101.904 61.6217C98.7524 65.7495 96.011 70.1775 93.7192 74.8425C93.2497 75.853 94.6527 76.7076 95.2558 75.7252C97.9171 71.2233 100.455 66.7328 103.539 62.4784C104.222 61.5594 102.665 60.5979 102.003 61.5958L101.904 61.6217Z" fill="#C6C6C6"/>
<path d="M101.641 68.9957C99.5583 72.0415 97.8479 75.3277 96.5462 78.7838C96.2039 79.7185 97.7971 80.4173 98.1984 79.467C99.571 76.139 101.241 72.9429 103.188 69.9178C103.821 68.9697 102.274 68.0476 101.646 69.0155L101.641 68.9957Z" fill="#C6C6C6"/>
<path d="M102.572 74.9991C100.704 78.0707 99.2196 81.362 98.1533 84.7989C97.8277 85.877 99.4516 86.2933 99.8321 85.264C100.947 82.0081 102.381 78.8719 104.114 75.9015C104.21 75.6983 104.226 75.4663 104.159 75.2514C104.093 75.0364 103.948 74.8542 103.754 74.7408C103.561 74.6274 103.332 74.591 103.113 74.6388C102.894 74.6867 102.701 74.8152 102.572 74.9991Z" fill="#C6C6C6"/>
<path d="M104.65 79.3701C103.548 81.4129 102.402 83.4462 101.375 85.5327C100.881 86.5286 102.309 87.3977 102.872 86.4256C104.043 84.4068 105.095 82.335 106.192 80.2725C106.745 79.261 105.219 78.4178 104.65 79.3701Z" fill="#C6C6C6"/>
<path d="M101.408 88.6065L101.325 89.0926C101.118 90.1395 102.713 90.6056 102.935 89.5337L103.042 89.0622C103.289 88.0048 101.61 87.5397 101.408 88.6065Z" fill="#C6C6C6"/>
<path d="M21.017 23.3112C19.6094 22.1201 18.1781 20.9986 16.7901 19.8024C16.6017 19.6615 16.3691 19.5934 16.135 19.6105C15.9009 19.6276 15.6809 19.7288 15.5154 19.8956C15.3499 20.0623 15.2499 20.2834 15.2338 20.5184C15.2177 20.7534 15.2865 20.9865 15.4277 21.175C16.6966 22.6267 18.2387 23.8129 19.9651 24.6653C20.7794 25.0417 21.8845 23.9691 21.017 23.3112Z" fill="#C6C6C6"/>
<path d="M17.6184 31.2376C14.5893 31.5404 11.5326 31.4303 8.53146 30.9104C7.32512 30.7218 6.8411 32.4751 8.00003 32.8028C11.2365 33.5734 14.5871 33.7282 17.8781 33.2592C18.9959 33.1122 18.7611 31.1052 17.6132 31.2179L17.6184 31.2376Z" fill="#C6C6C6"/>
<path d="M28.3726 100.012C26.7153 101.241 25.2376 102.697 23.9821 104.336C23.357 105.156 24.7386 106.248 25.4279 105.433C26.6165 104.096 27.9166 102.863 29.3141 101.748C30.3348 100.993 29.3239 99.2333 28.3136 100.028L28.3726 100.012Z" fill="#C6C6C6"/>
<path d="M105.738 47.6904C104.355 50.4197 102.967 53.1292 101.557 55.7597C101.279 56.2977 102.08 56.7832 102.378 56.24C103.782 53.5897 105.176 50.9 106.554 48.151C106.833 47.613 106.012 47.1327 105.758 47.6853L105.738 47.6904Z" fill="black"/>
<path d="M106.434 51.2859C104.692 53.4977 103.344 55.9957 102.451 58.6697C102.267 59.2461 103.173 59.4927 103.357 58.9163C104.197 56.4032 105.463 54.0552 107.1 51.9759C107.478 51.4962 106.798 50.8311 106.439 51.3056L106.434 51.2859Z" fill="black"/>
<path d="M107.654 53.5189C105.657 56.5789 103.758 59.7466 101.958 63.022C101.66 63.5652 102.481 64.0454 102.759 63.5075C104.503 60.243 106.41 57.0695 108.474 53.9992C108.803 53.4903 107.982 53.01 107.654 53.5189Z" fill="black"/>
<path d="M108.113 56.7756L102.413 65.6253C102.085 66.1342 102.905 66.6144 103.234 66.1056L108.914 57.261C109.242 56.7522 108.441 56.2667 108.113 56.7756Z" fill="black"/>
<path d="M108.823 60.346C106.764 63.1691 104.597 65.9572 102.323 68.7103C101.914 69.1557 102.614 69.8157 102.983 69.3806C105.343 66.6362 107.565 63.7746 109.639 60.8066C109.992 60.3123 109.177 59.8517 108.843 60.3408L108.823 60.346Z" fill="black"/>
<path d="M109.175 63.6736C107.291 65.8593 105.442 68.0991 103.668 70.3825C103.028 71.2267 100.814 73.1194 101.56 74.2738C101.883 74.7798 102.686 74.3148 102.363 73.8088C102.04 73.3028 105.735 69.2886 106.179 68.5804C107.372 67.1256 108.586 65.6656 109.809 64.2452C110.193 63.7852 109.512 63.1201 109.149 63.5749L109.175 63.6736Z" fill="black"/>
<path d="M109.963 66.1045L104.696 72.6868C104.026 73.4967 101.898 75.1557 102.531 76.361C102.82 76.8971 103.637 76.4072 103.349 75.871C104.401 74.2515 105.608 72.7384 106.952 71.353L110.624 66.7748C111.007 66.3148 110.327 65.6497 109.963 66.1045Z" fill="black"/>
<path d="M111.77 68.0135L103.331 78.1979C102.948 78.6579 103.628 79.323 104.011 78.863L112.431 68.6838C112.809 68.2041 112.129 67.539 111.77 68.0135Z" fill="black"/>
<path d="M111.804 71.1713C108.747 74.8908 105.587 78.5389 102.325 82.1156C101.916 82.5611 102.616 83.221 102.985 82.7859C106.257 79.2421 109.507 75.6193 112.465 71.8416C112.848 71.3816 112.168 70.7165 111.804 71.1713Z" fill="black"/>
<path d="M112.534 74.4199L104.164 83.8262C103.755 84.2717 104.455 84.9316 104.824 84.4966L113.195 75.0902C113.603 74.6448 112.903 73.9848 112.534 74.4199Z" fill="black"/>
<path d="M113.735 77.059C110.661 80.8186 107.399 84.4196 103.962 87.8483C103.875 87.9386 103.826 88.0603 103.828 88.1865C103.83 88.3128 103.882 88.4332 103.972 88.5214C104.062 88.6096 104.183 88.6583 104.309 88.6568C104.435 88.6553 104.555 88.6038 104.643 88.5134C108.046 85.0911 111.274 81.4988 114.317 77.75C114.7 77.29 114.02 76.6249 113.656 77.0797L113.735 77.059Z" fill="black"/>
<path d="M114.073 81.53C109.033 86.9826 103.843 92.2357 98.5027 97.2893C98.0644 97.7004 98.7838 98.3552 99.1631 97.9596C104.487 92.8402 109.677 87.5871 114.733 82.2003C115.141 81.7549 114.442 81.095 114.073 81.53Z" fill="black"/>
<path d="M115.117 85.3293L97.5261 104.113C97.4383 104.203 97.39 104.324 97.3918 104.451C97.3935 104.577 97.4451 104.697 97.5353 104.786C97.6255 104.874 97.7468 104.923 97.8727 104.921C97.9985 104.92 98.1184 104.868 98.2062 104.778L115.767 85.9601C116.18 85.5344 115.48 84.8745 115.111 85.3096L115.117 85.3293Z" fill="black"/>
<path d="M116.201 87.7667C110.939 93.5454 105.57 99.2329 100.092 104.829C100.048 104.874 100.014 104.927 99.9909 104.985C99.9678 105.043 99.9564 105.105 99.9573 105.168C99.9582 105.23 99.9713 105.292 99.9959 105.349C100.021 105.407 100.056 105.459 100.101 105.502C100.146 105.546 100.198 105.581 100.256 105.604C100.314 105.627 100.376 105.639 100.438 105.638C100.5 105.637 100.562 105.624 100.619 105.6C100.676 105.575 100.728 105.539 100.772 105.494C106.285 99.8184 111.655 94.1309 116.881 88.4318C117.27 87.9916 116.59 87.3265 116.201 87.7667Z" fill="black"/>
<path d="M117.034 90.5239C112.982 95.0968 108.822 99.5785 104.555 103.969C104.511 104.013 104.476 104.064 104.452 104.121C104.428 104.178 104.416 104.239 104.416 104.301C104.415 104.426 104.464 104.546 104.551 104.635C104.639 104.724 104.758 104.774 104.883 104.775C105.007 104.776 105.127 104.727 105.215 104.639L105.434 104.434C105.892 104.018 105.158 103.388 104.774 103.764L104.555 103.969L105.215 104.639C109.486 100.262 113.653 95.7785 117.714 91.189C118.097 90.729 117.417 90.0639 117.034 90.5239Z" fill="black"/>
<path d="M117.536 92.6713C115.909 94.4728 114.188 96.32 112.541 98.2108C110.977 99.5636 109.606 101.126 108.466 102.853C108.406 102.963 108.391 103.092 108.423 103.213C108.454 103.334 108.531 103.439 108.638 103.505C108.71 103.551 108.794 103.576 108.88 103.575C108.965 103.575 109.049 103.55 109.121 103.504C109.62 103.161 109.149 102.335 108.656 102.698L108.892 102.635L109.064 103.287C109.686 102.285 110.444 101.375 111.316 100.582L113.532 98.1396L117.983 93.2501C118.392 92.8046 117.692 92.1447 117.328 92.5995L117.536 92.6713Z" fill="black"/>
<path d="M117.483 95.261C115.434 97.3476 113.559 99.6002 111.878 101.996C111.525 102.49 112.34 102.951 112.674 102.462C114.339 100.125 116.184 97.9232 118.193 95.8762C118.281 95.7885 118.331 95.6691 118.332 95.5442C118.332 95.4194 118.283 95.2993 118.196 95.2104C118.108 95.1215 117.989 95.0711 117.865 95.0703C117.74 95.0694 117.62 95.1182 117.532 95.2059L117.483 95.261Z" fill="black"/>
<path d="M117.917 98.1022C117.061 99.5489 116.058 100.903 114.924 102.143C114.516 102.588 115.216 103.248 115.604 102.808C116.776 101.506 117.811 100.087 118.693 98.5731C119.002 98.0694 118.201 97.584 117.878 98.1125L117.917 98.1022Z" fill="black"/>
<path d="M98.8315 98.9337L99.0085 98.887C99.0832 98.8146 99.1318 98.7193 99.1464 98.616C99.1611 98.5128 99.141 98.4075 99.0894 98.3168L99.027 98.0799C98.976 97.991 98.8975 97.9213 98.8034 97.8813C98.7093 97.8413 98.6048 97.8333 98.5059 97.8584C97.0735 98.0884 95.523 100.503 94.5451 101.5L88.96 107.195C88.9162 107.238 88.8814 107.29 88.8575 107.347C88.8337 107.404 88.8212 107.465 88.8209 107.527C88.8203 107.652 88.8692 107.772 88.9568 107.86C89.0444 107.949 89.1635 108 89.2879 108.001C89.4124 108.001 89.532 107.953 89.6204 107.865C91.172 106.252 92.7484 104.655 94.3248 103.057L96.6797 100.662L97.8571 99.4651C98.5256 99.2888 98.6274 98.7975 98.2509 98.3268C97.7825 98.7036 98.5215 99.3532 98.9061 98.9774L98.8315 98.9337Z" fill="black"/>
<path d="M91.7579 100.102L82.8799 109.579C82.4665 110.005 83.1662 110.665 83.5352 110.23L92.438 100.767C92.8463 100.322 92.1465 99.662 91.7579 100.102Z" fill="black"/>
<path d="M87.0772 101.97C84.2748 104.82 81.4995 107.853 78.6381 110.719C78.5497 110.806 78.4997 110.926 78.4991 111.051C78.4985 111.176 78.5474 111.296 78.635 111.385C78.7225 111.473 78.8417 111.524 78.9661 111.525C79.0906 111.525 79.2102 111.477 79.2986 111.389C82.16 108.523 84.9821 105.668 87.7324 102.62C88.1459 102.195 87.4462 101.535 87.0772 101.97Z" fill="black"/>
<path d="M82.2061 104.711C80.6394 105.34 79.2993 106.429 78.3616 107.836C76.8557 109.542 75.3499 111.248 73.8191 112.94C73.4357 113.4 74.1158 114.065 74.4992 113.605L78.0164 109.637C79.2216 108.306 80.6054 105.978 82.4247 105.54C82.5447 105.509 82.6471 105.43 82.7095 105.323C82.7718 105.215 82.789 105.087 82.7573 104.967C82.7255 104.847 82.6474 104.744 82.5402 104.681C82.4329 104.618 82.3053 104.601 82.1853 104.632L82.2061 104.711Z" fill="black"/>
<path d="M75.6855 107.655L69.843 113.65C69.7711 113.742 69.7359 113.857 69.7444 113.974C69.7528 114.09 69.8042 114.2 69.8886 114.28C69.9729 114.361 70.0841 114.407 70.2005 114.41C70.3168 114.413 70.43 114.372 70.5179 114.296L76.3656 108.32C76.409 108.276 76.4432 108.223 76.4663 108.165C76.4893 108.107 76.5007 108.045 76.4999 107.982C76.499 107.92 76.4859 107.858 76.4613 107.8C76.4366 107.743 76.401 107.691 76.3563 107.647C76.3117 107.603 76.2589 107.569 76.201 107.546C76.1431 107.523 76.0813 107.511 76.019 107.512C75.9567 107.512 75.8952 107.525 75.838 107.55C75.7807 107.575 75.7289 107.61 75.6855 107.655Z" fill="black"/>
<path d="M71.1387 109.952C69.7685 111.417 68.3256 112.812 66.8153 114.132C66.3469 114.509 67.086 115.158 67.4706 114.782C68.9927 113.476 70.4364 112.08 71.7939 110.602C71.856 110.512 71.8844 110.402 71.874 110.292C71.8636 110.183 71.8151 110.08 71.737 110.003C71.6589 109.925 71.5562 109.877 71.4468 109.868C71.3375 109.859 71.2284 109.888 71.1387 109.952Z" fill="black"/>
<path d="M22.0986 36.6641C42.7353 28.0767 59.1502 11.6935 79.4878 2.53053C81.1204 1.78337 79.7058 -0.630333 78.0681 0.0970917C67.9779 4.65785 59.1398 10.9363 49.9691 17.0701C40.7984 23.204 30.4157 28.7286 21.4416 35.5284C21.3674 35.5715 21.3024 35.6289 21.2503 35.6973C21.1982 35.7657 21.1601 35.8438 21.1381 35.927C21.1161 36.0102 21.1107 36.097 21.1222 36.1824C21.1336 36.2678 21.1617 36.3502 21.2048 36.4247C21.248 36.4993 21.3053 36.5647 21.3736 36.617C21.4418 36.6694 21.5197 36.7078 21.6027 36.73C21.6857 36.7523 21.7722 36.7579 21.8573 36.7466C21.9424 36.7352 22.0244 36.7072 22.0986 36.6641Z" fill="black"/>
<path d="M20.9831 36.2615C22.9553 50.5194 26.5208 64.7584 29.586 78.8548C32.6512 92.9512 36.0374 107.069 39.5901 121.1C39.6799 121.44 39.9006 121.731 40.2037 121.908C40.5068 122.086 40.8676 122.135 41.2065 122.046C41.5455 121.956 41.8349 121.736 42.0111 121.432C42.1874 121.128 42.236 120.766 42.1462 120.426C38.6132 106.389 35.3554 92.2804 32.1028 78.1912C28.8502 64.1019 26.2979 49.638 22.2611 35.9245C22.1949 35.7806 22.0803 35.6646 21.9374 35.597C21.7946 35.5293 21.6327 35.5143 21.4801 35.5545C21.3275 35.5948 21.1941 35.6877 21.1032 35.817C21.0123 35.9463 20.9697 36.1036 20.9831 36.2615Z" fill="black"/>
<path d="M78.7677 2.1926C83.4429 17.8489 85.5448 34.3528 88.5857 50.2712C91.6267 66.1896 93.9425 82.4681 98.5853 97.9219C98.9653 99.3628 101.266 98.7562 100.827 97.3308C96.1123 81.6849 93.8601 65.0095 90.7382 48.9436C89.1465 40.8343 87.5501 32.7332 85.9488 24.6405C84.4116 16.8968 83.0843 8.99226 79.9058 1.7236C79.6213 1.12306 78.6011 1.56095 78.7677 2.1926Z" fill="black"/>
<path d="M40.8057 122.679C50.2649 119.235 59.8133 116.527 68.9597 112.215C78.8798 107.488 88.7589 101.569 99.4616 98.852C100.877 98.4787 100.214 96.2045 98.8942 96.7005C89.0047 100.427 79.6877 104.89 70.1961 109.567C65.019 112.18 59.6701 114.437 54.1864 116.322C49.3941 117.637 44.7156 119.337 40.1961 121.405C39.5155 121.774 39.981 122.981 40.7467 122.695L40.8057 122.679Z" fill="black"/>
<path d="M79.2562 1.09277C79.6668 4.48078 80.3866 7.82439 81.4065 11.0815C81.5678 11.6934 82.6423 11.6212 82.5636 10.9241C82.2127 7.4546 81.3855 4.04947 80.1057 0.805421C80.0529 0.719818 79.9741 0.653445 79.881 0.616084C79.7878 0.578723 79.6852 0.57235 79.5883 0.597905C79.4914 0.623459 79.4053 0.679589 79.3427 0.758022C79.2801 0.836456 79.2443 0.933044 79.2406 1.03355L79.2562 1.09277Z" fill="black"/>
<path d="M29.0085 39.0221C30.1295 45.7071 31.9815 52.2491 34.531 58.5295C34.8676 59.3274 36.1271 59.0797 35.8877 58.1718C34.1752 51.6776 32.1904 45.1076 30.0113 38.7576C29.9575 38.6473 29.8672 38.559 29.756 38.5078C29.6447 38.4566 29.5192 38.4456 29.4009 38.4768C29.2827 38.508 29.1789 38.5794 29.1074 38.6788C29.0358 38.7782 29.0009 38.8995 29.0085 39.0221Z" fill="black"/>
<path d="M29.3453 39.5032C32.5631 38.6307 35.6203 37.2472 38.4009 35.4053C41.7301 33.7725 44.9419 31.9097 48.0134 29.8304C48.6483 29.3674 48.3193 28.0397 47.4264 28.4019C40.9008 31.0093 35.392 35.7976 28.9121 38.4985C28.2829 38.6644 28.7647 39.6141 29.3453 39.5032Z" fill="black"/>
<path d="M47.7042 29.2154L47.6678 29.0772C47.4353 28.674 46.6922 28.8067 46.7437 29.3209C47.7537 36.8082 49.5669 44.1657 52.1517 51.2652C52.4849 52.5285 54.4563 52.0298 54.1179 50.7467C52.0411 43.5887 50.2662 36.1399 47.6649 29.2257L46.7575 29.6128L46.794 29.7509C46.8653 29.8502 46.9709 29.9192 47.0901 29.9444C47.2093 29.9695 47.3335 29.9491 47.4384 29.8871C47.5432 29.8251 47.621 29.7259 47.6566 29.6091C47.6922 29.4924 47.683 29.3663 47.6308 29.2558L47.7042 29.2154Z" fill="black"/>
<path d="M34.5163 57.1189C34.5272 58.1919 34.6813 59.2589 34.9744 60.2915C35.0411 60.5242 35.1948 60.7222 35.4032 60.8442C35.6117 60.9662 35.859 61.0028 36.0934 60.9464C38.6738 60.6038 41.4502 58.3727 43.7177 57.1626C46.8945 55.6851 49.9578 53.9741 52.8826 52.0436C53.4927 51.566 53.1897 50.337 52.306 50.6545C49.2273 51.9186 46.2466 53.4102 43.3886 55.1171C41.8213 56.127 40.1774 57.0123 38.4719 57.7647C36.5369 58.4016 36.2704 58.7464 35.4248 56.816C35.3103 56.3817 34.5042 56.5943 34.54 57.0493L34.5163 57.1189Z" fill="black"/>
<path d="M38.3917 40.4744C36.5556 41.4863 37.43 44.8025 38.6017 46.0558C38.9942 46.4595 39.4695 46.7728 39.9945 46.9737C40.5196 47.1747 41.0817 47.2584 41.6419 47.2192C42.202 47.1801 42.7467 47.0188 43.2379 46.7468C43.7292 46.4747 44.1553 46.0984 44.4865 45.644C45.1658 44.7152 45.453 43.5548 45.2859 42.4137C45.1188 41.2725 44.5108 40.2424 43.5935 39.546C43.1557 39.1924 42.6452 38.9408 42.0988 38.8095C41.5525 38.6782 40.9842 38.6706 40.4351 38.7871C39.8859 38.9036 39.3697 39.1414 38.924 39.4831C38.4782 39.8248 38.114 40.262 37.8579 40.7629C37.5607 41.3902 38.2118 42.1051 38.8404 41.5383C39.247 41.0554 39.7983 40.7174 40.4123 40.5745C41.0263 40.4317 41.6702 40.4915 42.2484 40.7452C42.8223 41.0661 43.256 41.5909 43.4637 42.2162C43.6714 42.8415 43.6381 43.5218 43.3703 44.1227C43.2372 44.4229 43.0415 44.691 42.7964 44.9089C42.5513 45.1268 42.2625 45.2895 41.9494 45.386C41.6363 45.4826 41.3061 45.5108 40.9809 45.4688C40.6558 45.4267 40.3432 45.3154 40.0642 45.1423C39.228 44.6028 37.9302 42.0739 39.0232 41.1945C39.4968 40.8374 38.9098 40.1266 38.4154 40.4048L38.3917 40.4744Z" fill="black"/>
<path d="M41.5948 56.6879C40.9597 54.2798 40.6908 50.8673 42.314 48.7293C44.8342 45.4469 47.1765 52.8938 48.0006 54.3443C48.0942 54.5274 48.2531 54.6685 48.4456 54.7393C48.6382 54.8101 48.8501 54.8055 49.0391 54.7263C49.228 54.6471 49.3801 54.4993 49.465 54.3123C49.5498 54.1253 49.5611 53.9129 49.4967 53.7176C49.1022 50.866 45.9897 44.0866 42.0613 46.4948C41.3793 47.0738 40.8217 47.7859 40.4223 48.5879C40.0229 49.3899 39.7901 50.2652 39.7377 51.1609C39.4323 53.1749 39.7553 55.2355 40.6625 57.0604C40.7228 57.1599 40.8163 57.2347 40.9264 57.2715C41.0364 57.3082 41.1559 57.3044 41.2633 57.2609C41.3707 57.2173 41.459 57.1368 41.5126 57.0337C41.5661 56.9306 41.5813 56.8118 41.5554 56.6983L41.5948 56.6879Z" fill="black"/>
<path d="M52.3913 33.1939C56.7615 32.7804 61.1127 29.9019 64.9942 28.0339C70.4621 25.7043 75.7638 23.0014 80.8622 19.944C81.6296 19.4249 81.1658 17.985 80.1838 18.3284C70.3839 21.757 61.9113 28.7835 52.2988 32.205C51.8072 32.3346 51.8396 33.2549 52.4306 33.1835L52.3913 33.1939Z" fill="black"/>
<path d="M54.757 37.7001C59.9295 35.9542 64.9239 33.7182 69.6726 31.0225C69.8549 30.9289 69.9951 30.7697 70.0653 30.5767C70.1356 30.3837 70.1305 30.171 70.0513 29.9812C69.972 29.7915 69.8244 29.6386 69.6378 29.5531C69.4513 29.4676 69.2396 29.4558 69.0451 29.5201C63.7692 31.0536 58.8073 33.5128 54.3892 36.7838C53.9641 37.0859 54.1972 37.89 54.757 37.7001Z" fill="black"/>
<path d="M37.5693 72.8441C44.4761 70.3408 51.2296 67.4321 57.7948 64.133C64.7656 60.9014 72.5125 58.1408 78.846 53.7684C79.0328 53.6729 79.1767 53.5103 79.249 53.3128C79.3213 53.1154 79.3168 52.8978 79.2363 52.7032C79.1558 52.5087 79.0053 52.3516 78.8148 52.2633C78.6242 52.175 78.4076 52.1619 78.2081 52.2266C71.2303 54.2355 64.5793 58.1216 58.0607 61.2339C50.8898 64.3626 43.9141 67.9222 37.1714 71.8935C37.0765 71.9641 37.0081 72.0646 36.9769 72.179C36.9458 72.2934 36.9537 72.415 36.9995 72.5245C37.0453 72.6339 37.1263 72.7249 37.2296 72.7828C37.3329 72.8408 37.4525 72.8624 37.5693 72.8441Z" fill="black"/>
<path d="M44.2292 74.2547C56.5481 68.8951 69.435 64.6524 81.322 58.3723C81.5017 58.2595 81.6355 58.0862 81.6995 57.8833C81.7635 57.6805 81.7536 57.4613 81.6714 57.2648C81.5893 57.0684 81.4404 56.9074 81.2511 56.8108C81.0619 56.7141 80.8448 56.6879 80.6384 56.737C67.8302 60.9589 55.8235 67.5028 43.7185 73.3549C43.1009 73.6444 43.626 74.5193 44.2292 74.2547Z" fill="black"/>
<path d="M45.2083 79.0844L44.6271 79.5121C44.2072 79.8339 44.4259 80.6629 45.025 80.4627C55.3499 77.2266 65.2833 72.8513 74.6432 67.4169C75.3869 66.9675 74.919 65.592 74.0458 65.9489C64.0302 69.8355 54.3269 74.9065 44.6271 79.5121L45.2401 80.3216L45.8109 79.8544C46.2203 79.4931 45.6426 78.7376 45.2083 79.0844Z" fill="black"/>
<path d="M52.5639 91.2682L52.387 91.3149C52.2611 91.2853 52.1288 91.3049 52.017 91.3697C51.9052 91.4344 51.8222 91.5396 51.7849 91.6636L51.7242 91.9119C51.705 91.9833 51.7021 92.0583 51.7159 92.131C51.7297 92.2038 51.7597 92.2725 51.8037 92.3321C51.8478 92.3916 51.9046 92.4403 51.9701 92.4746C52.0356 92.5089 52.1079 92.5279 52.1817 92.5302C54.0128 92.3566 55.7857 91.7956 57.3835 90.884C59.8667 89.9336 62.3303 88.9885 64.8239 88.0776C69.3942 86.4291 74.0571 85.0517 78.5308 83.1964C79.3451 82.8551 78.7471 81.7038 77.9843 81.8416C73.3287 82.8385 68.7793 84.2785 64.3977 86.1421C62.8374 86.7647 61.2824 87.407 59.7522 88.0638C58.5262 88.5982 57.3251 89.1472 56.1291 89.7159C55.6966 89.8299 51.9255 92.1966 52.3904 92.2851C52.8554 92.3736 53.2723 91.4825 52.6686 91.3462L52.5639 91.2682Z" fill="black"/>
<path d="M50.2774 101.498C53.6871 100.238 56.954 98.619 60.0235 96.6692C60.1491 96.5691 60.2346 96.427 60.2646 96.2687C60.2946 96.1105 60.267 95.9466 60.1869 95.8069C60.1068 95.6671 59.9794 95.5607 59.828 95.5069C59.6765 95.4531 59.5109 95.4556 59.3613 95.5138C56.1772 97.1557 52.937 98.6646 49.7778 100.321C49.6551 100.407 49.5656 100.532 49.5243 100.676C49.4831 100.82 49.4926 100.974 49.5512 101.112C49.6098 101.251 49.714 101.364 49.8463 101.435C49.9786 101.505 50.1308 101.527 50.2774 101.498Z" fill="black"/>
<path d="M82.0023 8.15864L81.6287 8.25716C80.9995 8.42307 81.4772 9.43713 82.0723 9.30132C86.0048 8.26436 90.0749 7.1911 94.0466 6.14376C94.2236 6.06543 94.3668 5.92632 94.4506 5.75139C94.5343 5.57647 94.5531 5.3772 94.5036 5.18937C94.454 5.00153 94.3394 4.83744 94.1803 4.72656C94.0212 4.61568 93.828 4.56526 93.6354 4.58438C89.4955 5.29907 85.4607 6.52611 81.6235 8.23742L82.1995 9.22555L82.5222 9.01379C82.6349 8.93892 82.7146 8.82351 82.745 8.69129C82.7754 8.55908 82.7541 8.42013 82.6855 8.30301C82.6169 8.18589 82.5062 8.09951 82.3762 8.06164C82.2463 8.02377 82.1069 8.0373 81.9867 8.09943L82.0023 8.15864Z" fill="black"/>
<path d="M93.7471 5.88508C97.5104 19.4385 98.1832 34.2714 99.4551 48.1863C100.727 62.1011 101.684 75.6979 102.708 89.5514C102.8 90.8572 104.828 90.8924 104.81 89.5461C103.775 74.9354 102.72 60.3299 101.311 45.7335C100.65 38.92 99.9296 32.122 99.0354 25.2221C98.5071 18.4691 97.0646 11.818 94.7476 5.45238C94.6018 4.89969 93.6748 5.29191 93.8206 5.8446L93.7471 5.88508Z" fill="black"/>
<path d="M98.4547 92.003C98.7375 91.4007 100.733 91.2333 101.284 91.0881C102.181 90.9274 103.045 90.6141 103.836 90.1617C103.994 90.0695 104.116 89.9282 104.186 89.7593C104.255 89.5904 104.268 89.4032 104.221 89.2264C104.174 89.0495 104.071 88.8928 103.928 88.7801C103.784 88.6674 103.607 88.6049 103.425 88.6023C102.065 88.7697 100.75 89.1953 99.55 89.8564C98.6427 90.2434 97.6514 90.6315 97.4976 91.6432C97.3814 92.1594 98.1563 92.5462 98.4154 92.0134L98.4547 92.003Z" fill="black"/>
<path d="M96.6493 13.1421C99.3719 14.5353 102.364 15.4352 105.168 16.6591C106.756 17.3382 109.22 19.2641 110.902 18.1451C111.366 17.8327 111.517 16.9695 110.896 16.6898C106.516 14.4186 101.787 12.9036 96.9077 12.2084C96.8007 12.2132 96.698 12.2517 96.6142 12.3186C96.5305 12.3854 96.47 12.4772 96.4413 12.5807C96.4126 12.6842 96.4173 12.7942 96.4547 12.895C96.492 12.9959 96.5601 13.0823 96.6493 13.1421Z" fill="black"/>
<path d="M101.944 60.5766C105.431 46.5258 106.736 32.0158 111.852 18.401C112.238 17.3915 110.629 16.9503 110.243 17.9598C105.237 31.3555 102.754 46.2607 101.001 60.5086C100.935 61.054 101.81 61.1821 101.945 60.6607L101.944 60.5766Z" fill="black"/>
<path d="M104.478 41.795C105.518 51.4009 108.826 60.9155 111.258 70.2177C113.86 80.0872 115.911 90.3345 119.422 99.9011C119.483 100.131 119.632 100.328 119.837 100.448C120.042 100.568 120.286 100.602 120.516 100.541C120.745 100.481 120.941 100.331 121.061 100.126C121.18 99.9201 121.213 99.6751 121.152 99.4448C119.474 89.3316 116.22 79.465 113.617 69.5955C111.166 60.2985 109.332 50.3951 105.52 41.5202C105.454 41.4208 105.359 41.3446 105.248 41.3021C105.137 41.2596 105.015 41.2531 104.9 41.2834C104.786 41.3137 104.683 41.3793 104.607 41.471C104.532 41.5628 104.486 41.676 104.478 41.795Z" fill="black"/>
<path d="M41.3067 122.505C47.4605 121.917 53.6604 119.67 59.6378 118.094L80.1455 112.686C93.4569 109.176 107.332 106.446 120.292 101.846C120.506 101.79 120.689 101.65 120.8 101.459C120.911 101.267 120.942 101.039 120.885 100.824C120.829 100.609 120.689 100.426 120.498 100.314C120.307 100.202 120.079 100.171 119.866 100.227C106.327 102.636 92.9051 107.083 79.5938 110.593L59.9315 115.778C53.6789 117.427 46.8665 118.548 40.9829 121.197C40.8528 121.277 40.752 121.397 40.6954 121.54C40.6387 121.682 40.6293 121.839 40.6684 121.987C40.7075 122.136 40.7931 122.267 40.9125 122.363C41.032 122.459 41.1789 122.514 41.3316 122.52L41.3067 122.505Z" fill="black"/>
<path d="M119.151 98.1568C119.036 98.7254 119.053 99.3133 119.201 99.8747C119.349 100.436 119.624 100.956 120.005 101.394C120.188 101.573 120.433 101.673 120.689 101.673C120.944 101.673 121.189 101.572 121.371 101.392C121.508 101.25 121.594 101.066 121.618 100.87C121.642 100.673 121.602 100.474 121.504 100.302C121.302 99.933 120.991 99.5506 120.749 99.1921C120.517 98.7641 120.254 98.3537 119.963 97.9639C119.902 97.9006 119.826 97.8547 119.742 97.8309C119.658 97.807 119.569 97.8062 119.485 97.8284C119.401 97.8507 119.324 97.8951 119.263 97.9573C119.202 98.0194 119.158 98.0969 119.137 98.1817L119.151 98.1568Z" fill="black"/>
</g>
</g>
</g>
<defs>
<filter id="filter0_d" x="-48.1311" y="-53.5931" width="245.783" height="250.238" filterUnits="userSpaceOnUse" color-interpolation-filters="sRGB">
<feFlood flood-opacity="0" result="BackgroundImageFix"/>
<feColorMatrix in="SourceAlpha" type="matrix" values="0 0 0 0 0 0 0 0 0 0 0 0 0 0 0 0 0 0 127 0"/>
<feOffset dy="4"/>
<feGaussianBlur stdDeviation="25"/>
<feColorMatrix type="matrix" values="0 0 0 0 0 0 0 0 0 0 0 0 0 0 0 0 0 0 0.75 0"/>
<feBlend mode="normal" in2="BackgroundImageFix" result="effect1_dropShadow"/>
<feBlend mode="normal" in="SourceGraphic" in2="effect1_dropShadow" result="shape"/>
</filter>
<clipPath id="clip0">
<rect width="222" height="184" fill="white"/>
</clipPath>
<clipPath id="clip1">
<rect x="51.8677" y="96.2319" width="159.508" height="95.7046" transform="rotate(-24.1563 51.8677 96.2319)" fill="white"/>
</clipPath>
<clipPath id="clip2">
<rect x="1.8689" y="22.4944" width="118" height="124.258" transform="rotate(-14.7723 1.8689 22.4944)" fill="white"/>
</clipPath>
</defs>
</svg>
