<svg width="156" height="81" viewBox="0 0 156 81" fill="none" xmlns="http://www.w3.org/2000/svg">
<path d="M2.29314 13.8077C2.9412 13.4971 3.60158 13.1941 4.24964 12.8835C4.94893 12.5549 5.52709 12.1034 6.13185 11.6189C7.17142 10.7924 6.15579 8.79649 4.94263 9.14016C4.19805 9.34276 3.50749 9.56184 2.8356 9.9399C2.20263 10.2924 1.56966 10.645 0.936693 10.9976C-0.334013 11.7161 0.984696 14.4213 2.29314 13.8077Z" fill="#3F3F3F"/>
<path d="M21.2334 9.35233C23.7419 8.86079 26.1597 8.24258 28.551 7.41174C29.5885 7.06083 29.1116 4.9124 27.9381 5.07332C25.292 5.42747 22.7628 5.97783 20.2148 6.67751C18.7408 7.06642 19.7628 9.63605 21.2334 9.35233Z" fill="#3F3F3F"/>
<path d="M39.2388 4.34936C42.6531 4.45791 45.9774 4.38965 49.3295 4.14656C50.7036 4.04163 50.349 1.78569 48.9331 1.67338C45.5088 1.40175 42.1325 1.28147 38.7563 1.35298C37.0871 1.38287 37.5342 4.28792 39.2388 4.34936Z" fill="#3F3F3F"/>
<path d="M60.9785 3.3734C63.7815 3.64008 66.5724 3.94113 69.3911 3.94609C70.431 3.95315 70.4675 1.72153 69.4756 1.53501C66.7762 1.01834 64.0676 0.788256 61.3524 0.533308C60.0042 0.401086 59.605 3.22581 60.9785 3.3734Z" fill="#3F3F3F"/>
<path d="M81.9616 9.03665C84.5311 9.91569 87.0974 10.7547 89.6905 11.4196C91.0282 11.7581 91.6336 9.40391 90.259 8.77644C87.6154 7.56668 84.9538 6.55539 82.2668 5.56676C80.3492 4.85612 80.0131 8.36433 81.9616 9.03665Z" fill="#3F3F3F"/>
<path d="M106.175 14.8736C107.704 15.7689 109.215 16.5817 110.784 17.3218C112.162 17.9816 112.89 15.9182 111.616 14.9636C110.173 13.8699 108.718 12.8949 107.215 11.926C105.565 10.8856 104.504 13.8922 106.175 14.8736Z" fill="#3F3F3F"/>
<path d="M127.416 26.2617C128.489 27.4908 129.542 28.6892 130.695 29.7749C131.602 30.6346 133.026 29.2355 132.222 27.9584C131.261 26.4132 130.203 25.0197 129.137 23.603C127.937 22.0269 126.11 24.7751 127.416 26.2617Z" fill="#3F3F3F"/>
<path d="M140.185 38.7865C141.437 41.0224 142.741 43.1108 144.199 45.0941C144.992 46.1746 146.194 44.5164 145.639 43.3422C144.573 41.0798 143.408 39.0159 142.134 36.9659C141.197 35.4194 139.277 37.1581 140.185 38.7865Z" fill="#3F3F3F"/>
<path d="M149.132 52.4484C149.573 53.6868 150.023 54.8583 150.578 56.0404C151.041 57.0405 152.46 56.4862 152.228 55.411C151.944 54.1251 151.586 52.9191 151.18 51.6669C150.642 49.9923 148.552 50.8025 149.132 52.4484Z" fill="#3F3F3F"/>
<path d="M151.363 66.2331C152.019 67.6517 152.701 68.9995 153.485 70.3666C154.07 71.3684 155.603 71.0106 155.257 69.9531C154.797 68.5104 154.256 67.1191 153.663 65.6964C152.945 63.9671 150.576 64.5198 151.363 66.2331Z" fill="#3F3F3F"/>
<path d="M153.841 78.0081C153.83 78.3013 153.808 78.5866 153.797 78.8797C153.741 79.9226 154.624 80.4606 155.193 79.7296C155.357 79.5301 155.521 79.3305 155.672 79.1231C156.156 78.5002 155.871 77.3688 155.295 77.0179C154.731 76.6748 153.89 77.1201 153.841 78.0081Z" fill="#3F3F3F"/>
</svg>
