<svg width="109" height="56" viewBox="0 0 109 56" fill="none" xmlns="http://www.w3.org/2000/svg">
<path fill-rule="evenodd" clip-rule="evenodd" d="M108.533 26.8533C108.533 22.8373 106.997 19.568 101.845 16.7947L95.504 13.376C92.8373 11.9413 92.1814 11.296 92.1814 9.90934C92.1814 8.12267 93.248 7.28 96.048 7.28C99.4187 7.28 105.163 7.728 106.549 7.81334H106.651C106.874 7.83172 107.094 7.75014 107.252 7.59058C107.409 7.43102 107.488 7.20987 107.467 6.98667V1.98401C107.485 1.53906 107.161 1.15345 106.72 1.09334C104.837 0.592006 99.8347 0.0266724 96.2187 0.0266724C86.6187 0.0266724 83.536 4.24001 83.536 9.68534C83.536 13.3067 84.7733 16.4267 89.4027 19.152L96.24 23.2107C98.816 24.7467 99.5094 25.5413 99.5094 26.976C99.4667 29.3333 98.496 30.4 95.0773 30.4C93.1467 30.4 87.696 30 85.6693 29.8027H85.52C85.2685 29.7786 85.0198 29.8716 84.8459 30.0549C84.672 30.2382 84.5921 30.4914 84.6293 30.7413V35.6C84.6293 36.1333 85.12 36.4427 85.616 36.5867C88.6775 37.3542 91.8253 37.7235 94.9814 37.6853C105.035 37.7067 108.533 32.1013 108.533 26.8533Z" fill="white"/>
<path fill-rule="evenodd" clip-rule="evenodd" d="M30.1814 0.992032C30.1814 0.693365 29.936 0.458699 29.392 0.458699H21.808C21.3677 0.432186 20.9518 0.662997 20.7414 1.0507L9.81871 17.1414V1.3867C9.81602 1.13017 9.70963 0.885651 9.52377 0.708827C9.3379 0.532003 9.08838 0.437929 8.83204 0.448032H2.34137C2.08183 0.433479 1.82757 0.525396 1.63733 0.70255C1.44709 0.879705 1.33732 1.12678 1.33337 1.3867V36.2667C1.33337 36.8146 1.77751 37.2587 2.32537 37.2587H8.83204C9.09465 37.2587 9.34642 37.154 9.53161 36.9678C9.7168 36.7816 9.82013 36.5293 9.81871 36.2667V20.2134L19.8774 36.56C20.0648 36.9815 20.4828 37.2532 20.944 37.2534H29.4774C29.9254 37.2534 30.1707 37.056 30.1707 36.7574C30.1635 36.5631 30.0943 36.3762 29.9734 36.224L18.144 18.4267L29.936 1.68537C30.0752 1.47874 30.1596 1.24018 30.1814 0.992032Z" fill="white"/>
<path fill-rule="evenodd" clip-rule="evenodd" d="M11.024 50.592C11.024 52.2666 10.4534 52.8 9.52538 52.8C8.59738 52.8 8.09605 52.2666 8.09605 50.592C8.09605 48.9173 8.69872 48.384 9.55738 48.384C10.416 48.384 11.024 48.9173 11.024 50.592ZM12.1227 50.592C12.1227 48.336 11.056 47.488 9.55738 47.488C8.05872 47.488 6.98672 48.6133 6.98672 50.592C6.98672 52.7786 7.98938 53.696 9.52538 53.696C11.0614 53.696 12.1227 52.6773 12.1227 50.592ZM17.184 50.592C17.184 52.2666 16.6134 52.8 15.6854 52.8C14.7574 52.8 14.256 52.2666 14.256 50.592C14.256 48.9173 14.864 48.384 15.7227 48.384C16.5814 48.384 17.184 48.9173 17.184 50.592ZM18.2827 50.592C18.2827 48.336 17.216 47.488 15.7227 47.488C14.2294 47.488 13.1467 48.6133 13.1467 50.592C13.1467 52.7786 14.1547 53.696 15.6854 53.696C17.2161 53.696 18.2827 52.6773 18.2827 50.592ZM23.4401 50.5226C23.4401 52.1706 22.96 52.7893 21.84 52.7893C21.4547 52.7873 21.0745 52.7017 20.7254 52.5386V48.8053C21.144 48.5349 21.6353 48.3991 22.1334 48.416C22.9547 48.416 23.4614 48.8053 23.4614 50.5493L23.4401 50.5226ZM24.56 50.4373C24.56 48.4 23.7227 47.5146 22.4641 47.5146C21.8564 47.4992 21.2675 47.7255 20.8267 48.144H20.7467V47.6106C20.4059 47.6087 20.0654 47.6319 19.7281 47.68V55.9626H20.7467V53.5146C21.1189 53.6456 21.5096 53.7158 21.904 53.7226C23.5041 53.7226 24.5387 52.736 24.5387 50.4373H24.56ZM27.9841 48.304C28.7521 48.304 29.1841 48.7306 29.1841 49.7173C29.1841 49.7973 29.1841 49.9893 29.1841 50.08H26.6827C26.7147 48.8213 27.2161 48.304 27.9841 48.304ZM30.2081 49.904C30.2081 48.3733 29.4614 47.4773 28.0107 47.4773C26.56 47.4773 25.5574 48.4533 25.5574 50.6773C25.5574 52.704 26.5121 53.7013 28.2934 53.7013C28.9173 53.7053 29.5344 53.5724 30.1014 53.312C30.0494 52.9828 29.9655 52.6595 29.8507 52.3466C29.3794 52.5969 28.8537 52.727 28.3201 52.7253C27.0454 52.7253 26.672 52.1173 26.672 50.8746V50.7733H30.1707C30.1707 50.5013 30.2081 50.1706 30.2081 49.9146V49.904ZM34.6134 47.5466C34.4661 47.5043 34.3133 47.4845 34.1601 47.488C33.7921 47.488 33.3814 47.5573 32.7254 48.336H32.6721V47.584C32.3312 47.5819 31.9908 47.605 31.6534 47.6533V53.5786H32.6721V49.136C33.0027 48.7472 33.4897 48.5262 34 48.5333C34.1802 48.5312 34.3598 48.5545 34.5334 48.6026C34.5956 48.2504 34.6295 47.8937 34.6347 47.536L34.6134 47.5466ZM38.3681 52.4C37.9557 52.6819 37.4701 52.8376 36.9707 52.848C36.3414 52.848 36.0641 52.592 36.0641 51.9786C36.0641 51.28 36.3414 51.0133 37.1307 50.9813L38.3574 50.9226L38.3681 52.4ZM40.3574 52.6666H39.6694C39.4027 52.6666 39.3227 52.56 39.3227 52.2773V48.064C38.6706 47.6503 37.9077 47.4456 37.1361 47.4773C36.5945 47.4762 36.0555 47.5534 35.5361 47.7066C35.5492 48.0235 35.5956 48.3382 35.6747 48.6453C36.1216 48.4783 36.595 48.3934 37.0721 48.3946C37.5022 48.3888 37.9284 48.4781 38.3201 48.656V50.2026L37.1307 50.2506C35.7121 50.3093 34.9974 50.784 34.9974 52.048C34.9974 53.168 35.7067 53.6853 36.7361 53.6853C37.3508 53.6886 37.9458 53.4688 38.4107 53.0666H38.4534C38.6296 53.4891 39.0659 53.7421 39.5201 53.6853C39.9787 53.6853 40.3094 53.488 40.3094 52.9706L40.3574 52.6666ZM44.3467 53.44C44.3204 53.1361 44.2705 52.8347 44.1974 52.5386C43.921 52.6515 43.6264 52.7129 43.3281 52.72C42.7414 52.72 42.5227 52.5386 42.5227 51.8293V48.496H43.9681C43.9996 48.2002 44.0103 47.9026 44.0001 47.6053H42.4961V46.1386C42.1482 46.1709 41.8038 46.2334 41.4667 46.3253V47.6053H40.7574V48.496H41.4667V51.76C41.4667 53.0773 42.0001 53.696 43.2054 53.696C43.5897 53.6905 43.9689 53.6071 44.3201 53.4506L44.3467 53.44ZM46.4054 47.584H45.3867V53.5573H46.4054V47.584ZM46.4961 45.936C46.5176 45.7081 46.4081 45.4877 46.2136 45.3671C46.0191 45.2465 45.773 45.2465 45.5785 45.3671C45.384 45.4877 45.2745 45.7081 45.2961 45.936C45.2745 46.1638 45.384 46.3842 45.5785 46.5048C45.773 46.6254 46.0191 46.6254 46.2136 46.5048C46.4081 46.3842 46.5176 46.1638 46.4961 45.936ZM52.6027 47.632C52.276 47.5843 51.9462 47.5611 51.6161 47.5626L50.2454 51.7706C50.1726 52.0059 50.1191 52.2467 50.0854 52.4906H50.0267C49.9984 52.2554 49.9484 52.0233 49.8774 51.7973L48.4801 47.584C48.1393 47.5824 47.7988 47.6056 47.4614 47.6533C47.9947 49.6213 48.7467 51.7386 49.4667 53.5786H50.5654C51.3441 51.6 52.0161 49.6853 52.6027 47.6533V47.632ZM55.6587 48.288C56.4267 48.288 56.8641 48.7146 56.8641 49.7013C56.8641 49.7813 56.8641 49.9733 56.8641 50.064H54.3681C54.4001 48.8053 54.9014 48.288 55.6694 48.288H55.6587ZM57.8934 49.888C57.8934 48.3573 57.1467 47.4613 55.6961 47.4613C54.2454 47.4613 53.2427 48.4373 53.2427 50.6613C53.2427 52.688 54.1974 53.6853 55.9787 53.6853C56.6026 53.6893 57.2198 53.5564 57.7867 53.296C57.7373 52.9663 57.6532 52.6427 57.5361 52.3306C57.065 52.5815 56.5391 52.7116 56.0054 52.7093C54.7307 52.7093 54.3574 52.1013 54.3574 50.8586V50.7733H57.8667C57.8934 50.5013 57.9041 50.1706 57.9041 49.9146L57.8934 49.888ZM6.19205 53.1893C6.15322 52.8477 6.0836 52.5104 5.98405 52.1813C5.43103 52.524 4.79461 52.7085 4.14405 52.7146C2.66672 52.7146 2.01072 51.8186 2.01072 49.7493C2.01072 47.4826 2.78938 46.7626 4.14405 46.7626C4.73361 46.7593 5.31593 46.8926 5.84538 47.152C5.93406 46.8203 6.00351 46.4837 6.05338 46.144C5.43892 45.8804 4.77518 45.7513 4.10672 45.7653C2.17605 45.7493 0.800049 46.9333 0.800049 49.712C0.800049 52.32 1.93605 53.696 4.13338 53.696C4.85362 53.6948 5.56184 53.5113 6.19205 53.1626V53.1893Z" fill="white"/>
<path fill-rule="evenodd" clip-rule="evenodd" d="M78.832 21.7973V15.9307C78.832 4.41067 72.3414 0 64.1654 0C55.9894 0 49.504 4.41067 49.504 15.904V21.7707C49.504 33.264 55.9947 37.68 64.1654 37.68C72.336 37.68 78.832 33.264 78.832 21.7707V21.7973ZM70.2987 21.7707C70.2987 27.7173 68.32 30.2453 64.1547 30.2453C59.9894 30.2453 58.0747 27.7333 58.0747 21.7973V15.9307C58.0747 9.984 60.0054 7.456 64.1654 7.456C68.3254 7.456 70.3094 9.984 70.3094 15.9307L70.2987 21.7707Z" fill="white"/>
<path fill-rule="evenodd" clip-rule="evenodd" d="M43.408 36.2666V1.38664C43.4171 1.13503 43.3211 0.890979 43.143 0.712945C42.965 0.534911 42.721 0.438925 42.4693 0.447974H35.8293C35.5817 0.439571 35.3422 0.537283 35.171 0.716554C34.9999 0.895825 34.9134 1.13961 34.9333 1.38664V36.2666C34.9111 36.5184 34.9944 36.7681 35.1632 36.9561C35.332 37.1442 35.5713 37.2537 35.824 37.2586H42.4693C42.7268 37.256 42.9722 37.1489 43.1492 36.9618C43.3262 36.7748 43.4196 36.5239 43.408 36.2666Z" fill="white"/>
<path fill-rule="evenodd" clip-rule="evenodd" d="M29.2374 8.53333C30.8385 8.53117 32.2831 9.49398 32.8973 10.9726C33.5115 12.4511 33.1742 14.1541 32.0429 15.287C30.9115 16.4199 29.209 16.7595 27.7296 16.1473C26.2502 15.5351 25.2854 14.0917 25.2854 12.4907C25.2854 10.3072 27.0539 8.53628 29.2374 8.53333Z" fill="white"/>
<path fill-rule="evenodd" clip-rule="evenodd" d="M65.8667 51.4774C65.8667 49.136 62.3627 49.2587 62.3627 47.7974C62.3627 47.152 62.6827 46.7307 63.7227 46.7307C64.262 46.7372 64.7988 46.8052 65.3227 46.9334C65.4142 46.6096 65.4714 46.2771 65.4934 45.9414C64.9678 45.826 64.4314 45.767 63.8934 45.7654C62.352 45.7654 61.2267 46.5227 61.2267 47.8987C61.2267 50.128 64.7254 49.936 64.7254 51.584C64.7254 52.3254 64.2667 52.7254 63.3867 52.7254C62.7275 52.7323 62.0739 52.6034 61.4667 52.3467C61.3476 52.6659 61.2618 52.9965 61.2107 53.3334C61.8734 53.5827 62.5774 53.704 63.2854 53.6907C64.8854 53.6907 65.8614 52.8267 65.8614 51.4774" fill="white"/>
<path d="M71.9628 50.5867C71.9628 48.3307 70.8961 47.488 69.3974 47.488C67.8987 47.488 66.8214 48.608 66.8214 50.5867C66.8214 52.7734 67.8294 53.6907 69.3654 53.6907C70.9014 53.6907 71.9628 52.6667 71.9628 50.5867ZM70.8641 50.5867C70.8641 52.2667 70.2934 52.7947 69.3654 52.7947C68.4374 52.7947 67.9361 52.2614 67.9361 50.5867C67.9361 48.912 68.5387 48.3787 69.3974 48.3787C70.2561 48.3787 70.8641 48.9387 70.8641 50.5867Z" fill="white"/>
<path fill-rule="evenodd" clip-rule="evenodd" d="M74.4266 53.5733V45.04C74.0855 45.0413 73.7451 45.068 73.408 45.12V53.552L74.4266 53.5733Z" fill="white"/>
<path fill-rule="evenodd" clip-rule="evenodd" d="M80.7574 53.5734V47.5681C80.4132 47.5715 80.0696 47.5946 79.7281 47.6374V52.3467C79.3008 52.6183 78.805 52.7625 78.2987 52.7627C77.5414 52.7627 77.2801 52.3947 77.2801 51.7974V47.5681C76.9359 47.5713 76.5922 47.5944 76.2507 47.6374V51.9041C76.2507 53.2801 77.0294 53.7174 77.9307 53.7174C78.5675 53.7202 79.1842 53.4951 79.6694 53.0827H79.7334V53.6161L80.7574 53.5734Z" fill="white"/>
<path fill-rule="evenodd" clip-rule="evenodd" d="M85.6694 53.4454C85.6456 53.1412 85.5957 52.8396 85.5201 52.544C85.2458 52.6574 84.9528 52.7189 84.6561 52.7254C84.0694 52.7254 83.8507 52.544 83.8507 51.8347V48.4907H85.2961C85.3401 48.1958 85.3633 47.8982 85.3654 47.6H83.8507V46.1334C83.5031 46.1678 83.1589 46.2302 82.8214 46.32V47.6H82.1121V48.4907H82.8214V51.7334C82.8214 53.0507 83.3547 53.6694 84.5601 53.6694C84.9427 53.6638 85.3201 53.5803 85.6694 53.424" fill="white"/>
<path d="M88.045 45.952C88.0699 45.7242 87.9428 45.5038 87.7169 45.3832C87.491 45.2626 87.2052 45.2626 86.9792 45.3832C86.7533 45.5038 86.6262 45.7242 86.6512 45.952C86.6262 46.1799 86.7533 46.4003 86.9792 46.5209C87.2052 46.6415 87.491 46.6415 87.7169 46.5209C87.9428 46.4003 88.0699 46.1799 88.045 45.952ZM87.9397 47.6H86.7565V53.5734H87.9397V47.6Z" fill="white"/>
<path d="M94.3414 50.5867C94.3414 48.3307 93.2748 47.488 91.7814 47.488C90.2881 47.488 89.2054 48.608 89.2054 50.5867C89.2054 52.7734 90.2134 53.6907 91.7441 53.6907C93.2748 53.6907 94.3414 52.6667 94.3414 50.5867ZM93.2428 50.5867C93.2428 52.2667 92.6721 52.7947 91.7441 52.7947C90.8161 52.7947 90.3148 52.2614 90.3148 50.5867C90.3148 48.912 90.9228 48.3787 91.7814 48.3787C92.6401 48.3787 93.2428 48.9387 93.2428 50.5867Z" fill="white"/>
<path fill-rule="evenodd" clip-rule="evenodd" d="M100.32 53.5733V49.3066C100.32 47.92 99.5307 47.488 98.624 47.488C97.9726 47.4763 97.3419 47.7171 96.864 48.16H96.8V47.5786C96.4592 47.5767 96.1188 47.5998 95.7814 47.648V53.5733H96.8V48.88C97.2341 48.5705 97.755 48.4063 98.288 48.4106C99.0347 48.4106 99.2854 48.768 99.2854 49.3493V53.5733H100.32Z" fill="white"/>
<path fill-rule="evenodd" clip-rule="evenodd" d="M105.579 51.9146C105.579 49.888 102.784 50.2293 102.784 49.1893C102.784 48.656 103.104 48.3893 103.701 48.3893C104.216 48.3889 104.728 48.4626 105.221 48.608C105.298 48.2964 105.348 47.9788 105.371 47.6587C104.914 47.543 104.444 47.4856 103.973 47.488C102.752 47.488 101.733 48.1013 101.733 49.3173C101.733 51.168 104.501 50.784 104.501 51.984C104.501 52.4746 104.24 52.7573 103.573 52.7573C102.993 52.762 102.42 52.6382 101.893 52.3946C101.782 52.6972 101.693 53.0073 101.627 53.3226C102.172 53.5791 102.768 53.7086 103.371 53.7013C104.549 53.7013 105.579 53.168 105.579 51.9253" fill="white"/>
</svg>
