<svg width="20" height="20" viewBox="0 0 20 20" fill="none" xmlns="http://www.w3.org/2000/svg">
<path fill-rule="evenodd" clip-rule="evenodd" d="M18.0321 0.191887C18.0745 0.227073 18.1133 0.266378 18.148 0.309187C18.1856 0.355565 18.2175 0.405041 18.2436 0.456672C18.3011 0.569797 18.3334 0.697786 18.3334 0.833333V5.83333C18.3334 6.29357 17.9603 6.66667 17.5001 6.66667C17.0398 6.66667 16.6667 6.29357 16.6667 5.83333V2.84513L8.92262 10.5893C8.59718 10.9147 8.06955 10.9147 7.74411 10.5893C7.41867 10.2638 7.41867 9.73618 7.74411 9.41074L15.4882 1.66667H12.5001C12.0398 1.66667 11.6667 1.29357 11.6667 0.833333C11.6667 0.373096 12.0398 0 12.5001 0H17.4999C17.4999 0 17.5 0 17.5001 0C17.623 0 17.7396 0.0265989 17.8447 0.0743543C17.9109 0.104416 17.974 0.143594 18.0321 0.191887ZM4.16675 4.16667C3.94573 4.16667 3.73377 4.25446 3.57749 4.41074C3.42121 4.56702 3.33342 4.77899 3.33342 5V14.1667C3.33342 14.3877 3.42121 14.5996 3.57749 14.7559C3.73377 14.9122 3.94573 15 4.16675 15H13.3334C13.5544 15 13.7664 14.9122 13.9227 14.7559C14.079 14.5996 14.1667 14.3877 14.1667 14.1667V9.16667C14.1667 8.70643 14.5398 8.33333 15.0001 8.33333C15.4603 8.33333 15.8334 8.70643 15.8334 9.16667V14.1667C15.8334 14.8297 15.57 15.4656 15.1012 15.9344C14.6323 16.4033 13.9965 16.6667 13.3334 16.6667H4.16675C3.50371 16.6667 2.86782 16.4033 2.39898 15.9344C1.93014 15.4656 1.66675 14.8297 1.66675 14.1667V5C1.66675 4.33696 1.93014 3.70107 2.39898 3.23223C2.86782 2.76339 3.50371 2.5 4.16675 2.5H9.16675C9.62699 2.5 10.0001 2.8731 10.0001 3.33333C10.0001 3.79357 9.62699 4.16667 9.16675 4.16667H4.16675Z" fill="#9EA700"/>
</svg>
