<svg width="160" height="18" viewBox="0 0 160 18" fill="none" xmlns="http://www.w3.org/2000/svg">
<path d="M0 11.6585H5.93186C6.09218 13.1866 7.21443 13.5687 8.81763 13.5687C10.5812 13.5687 11.3828 13.1866 11.3828 12.4226C11.3828 11.6585 10.7415 11.2765 8.65731 11.0855L6.41283 10.8945C2.88577 10.5125 0.480962 8.79338 0.480962 5.7372C0.480962 3.25405 2.08417 0.388885 8.65731 0.388885C13.6273 0.388885 16.6733 1.91698 16.994 5.7372H11.3828C11.2224 4.78214 10.5812 4.20911 8.81763 4.20911C7.05411 4.20911 6.41283 4.59113 6.41283 5.35518C6.41283 5.92821 7.05411 6.31023 8.17635 6.50125L10.4208 6.69226C15.2305 7.26529 17.3146 8.79338 17.3146 11.6585C17.3146 15.0968 14.2685 17.3889 8.65731 17.3889C2.88577 17.3889 0.160321 15.0968 0 11.6585Z" fill="white"/>
<path d="M18.4369 8.79338C18.4369 3.63608 22.4449 0.388885 28.6974 0.388885C34.3086 0.388885 37.515 3.06304 38.3166 7.07428H32.0641C31.5832 5.54619 30.3006 4.78214 28.5371 4.78214C26.1323 4.78214 24.6894 6.11922 24.6894 8.79338C24.6894 11.6585 26.2926 12.9956 28.5371 12.9956C30.1403 12.9956 31.5832 12.4226 31.9038 10.7035H38.1563C37.3547 14.5237 33.507 17.3889 28.2164 17.3889C22.6052 17.3889 18.4369 14.1417 18.4369 8.79338Z" fill="white"/>
<path d="M57.3948 0.769867V17.0058H51.3026V11.0845H45.8517V17.0058H39.7595V0.769867H45.8517V6.50021H51.3026V0.769867H57.3948V0.769867Z" fill="white"/>
<path d="M85.7715 0.769867L80.8016 17.0058H74.3888L73.1062 12.0395C72.7856 10.7025 72.4649 9.17436 72.1443 7.83729C71.8236 9.17436 71.503 10.7025 71.1824 12.0395L69.8998 17.0058H63.487L58.517 0.769867H64.7695L65.8918 5.54515C66.3727 7.45526 66.6934 9.36538 67.1743 11.2755C67.495 9.36538 67.9759 7.45526 68.4569 5.54515L69.5792 0.769867H75.3507L76.4729 5.54515C76.9539 7.45526 77.4349 9.36538 77.7555 11.2755C78.2365 9.36538 78.5571 7.45526 79.0381 5.54515L80.1603 0.769867H85.7715V0.769867Z" fill="white"/>
<path d="M97.1543 14.9047H90.2605L89.4589 17.0058H83.3667L89.7796 0.769867H97.1543L104.208 17.0058H97.7956L97.1543 14.9047ZM95.7114 11.0845L94.4289 7.26425C94.1082 6.50021 93.7876 5.54515 93.6273 4.7811L92.8256 7.26425L91.5431 11.0845H95.7114Z" fill="white"/>
<path d="M122.004 17.0058H115.751C115.431 16.6238 115.431 16.0508 115.431 15.2867V13.7586C115.271 12.2305 114.79 11.6575 113.026 11.6575H110.942V17.0058H104.85V0.769867H114.309C120.08 0.769867 121.683 3.062 121.683 5.54515C121.683 7.45526 120.721 8.79234 118.798 9.36538C120.561 9.93841 121.363 11.0845 121.523 12.9946L121.683 15.4777C121.683 16.2418 121.844 16.6238 122.004 17.0058ZM115.431 6.30919C115.431 5.16313 114.629 4.59009 113.347 4.59009H110.942V8.0283H113.347C114.629 8.0283 115.431 7.45526 115.431 6.30919Z" fill="white"/>
<path d="M122.966 8.79338C122.966 3.63608 126.974 0.388885 133.226 0.388885C138.838 0.388885 142.044 3.06304 142.846 7.07428H136.593C136.112 5.54619 134.83 4.78214 133.066 4.78214C130.661 4.78214 129.218 6.11922 129.218 8.79338C129.218 11.6585 130.822 12.9956 133.066 12.9956C134.669 12.9956 136.112 12.4226 136.433 10.7035H142.685C141.884 14.5237 138.036 17.3889 132.745 17.3889C126.974 17.3889 122.966 14.1417 122.966 8.79338Z" fill="white"/>
<path d="M160 12.6126V17.1968H143.327V12.9946L148.617 8.0283C149.739 7.07324 150.701 6.11818 151.984 4.97212C150.381 4.97212 148.778 4.97212 147.174 4.97212H143.647V0.769867H160V4.59009L154.549 9.55639C153.427 10.5114 152.465 11.4665 151.182 12.4216C152.786 12.4216 154.389 12.4216 155.992 12.4216H160V12.6126Z" fill="white"/>
</svg>
