<svg width="16" height="16" viewBox="0 0 16 16" fill="none" xmlns="http://www.w3.org/2000/svg">
<path fill-rule="evenodd" clip-rule="evenodd" d="M2.66675 4.33333C2.3016 4.33333 2.00008 4.63486 2.00008 5V13C2.00008 13.3651 2.3016 13.6667 2.66675 13.6667H13.3334C13.6986 13.6667 14.0001 13.3651 14.0001 13V5C14.0001 4.63486 13.6986 4.33333 13.3334 4.33333H2.66675ZM0.666748 5C0.666748 3.89848 1.56522 3 2.66675 3H13.3334C14.4349 3 15.3334 3.89848 15.3334 5V13C15.3334 14.1015 14.4349 15 13.3334 15H2.66675C1.56522 15 0.666748 14.1015 0.666748 13V5Z" fill="white"/>
<path fill-rule="evenodd" clip-rule="evenodd" d="M0.787073 4.61791C0.998216 4.31628 1.4139 4.24292 1.71554 4.45407L7.99989 8.85312L14.2843 4.45407C14.5859 4.24292 15.0016 4.31628 15.2127 4.61791C15.4239 4.91954 15.3505 5.33523 15.0489 5.54637L8.3822 10.213C8.15266 10.3737 7.84713 10.3737 7.61759 10.213L0.95092 5.54637C0.649287 5.33523 0.57593 4.91954 0.787073 4.61791Z" fill="white"/>
</svg>
