<svg width="33" height="33" viewBox="0 0 33 33" fill="none" xmlns="http://www.w3.org/2000/svg">
<path d="M2.35928 8.43233C2.88621 5.62689 13.3623 4.20692 15.5188 3.65397C18.8865 2.78707 22.2735 1.99279 25.681 1.28344C27.1897 0.96596 29.6057 0.14008 31.1419 0.76321C31.1765 0.735096 31.2222 0.693511 31.2567 0.665397C31.5443 0.427016 31.8717 0.606813 32.0216 0.877981C32.2612 0.917216 32.4656 1.10873 32.4176 1.38635C30.8838 8.86735 29.8544 17.0822 25.8708 23.7293C25.5809 24.2037 25.0725 24.339 24.6069 24.011C23.2246 23.0505 21.8881 22.0486 20.5614 21.0206C20.5087 21.2491 20.343 21.4634 20.0748 21.5139C17.817 21.9151 15.3518 22.4851 13.2522 23.5042C13.2101 23.5827 13.1802 23.66 13.1391 23.7508C12.7866 24.4794 11.7598 24.2545 11.638 23.4966C11.365 21.6734 11.29 19.8437 11.2261 18.0005C11.171 16.3799 10.8547 14.6228 10.9999 13.0205C10.9976 12.9959 11.0198 12.969 11.0175 12.9444C10.112 12.8196 9.11165 12.2199 8.38539 11.892C6.739 11.1552 5.1547 10.2884 3.48606 9.57862C3.2799 9.49897 3.16757 9.36074 3.09084 9.20671C3.07842 9.20789 3.06624 9.20905 3.06624 9.20905C2.64558 9.22418 2.2773 8.87452 2.35928 8.43233ZM19.9298 9.17863C18.5288 10.1064 14.4356 13.9094 12.5572 13.083C12.3892 13.0121 12.3001 12.8593 12.2591 12.6894C12.2479 12.7029 12.2233 12.7053 12.2123 12.7187C12.2539 12.7644 12.2966 12.8224 12.3271 12.8815C12.9075 14.1542 12.7472 15.8574 12.7899 17.2185C12.8261 18.3817 12.8626 19.5449 12.9481 20.7034C13.7803 19.1472 14.6383 17.6009 15.5748 16.0969C15.5472 15.9381 15.5666 15.7501 15.6989 15.5762C17.9239 12.7455 20.9242 10.2381 23.5299 7.75591C24.4746 6.8592 25.4181 5.95019 26.3628 5.05348C24.2075 6.40062 22.0657 7.75888 19.9298 9.17863ZM24.8663 22.1743C28.1448 16.2024 28.6834 9.35001 30.8573 2.98707C30.3127 3.52298 29.6081 4.07413 29.3229 4.33711C27.7878 5.81132 26.3055 7.31774 24.7447 8.782C22.2614 11.116 19.9557 14.1406 17.1409 16.1214C19.6834 18.1875 22.2136 20.2551 24.8663 22.1743ZM19.6893 20.3342C18.4547 19.3595 17.2312 18.3716 16.0188 17.3701C15.4899 18.7237 14.8949 20.0339 14.2876 21.3452C16.013 20.6968 18.0043 20.234 19.6893 20.3342ZM8.81522 10.1506C9.56972 10.5131 10.3363 10.8744 11.0795 11.2504C11.3407 11.3869 11.6119 11.4976 11.8608 11.6352C12.0705 11.7518 12.5473 12.0663 12.1344 12.0311C12.2473 12.0452 12.3158 12.1131 12.3609 12.1957C12.3944 12.1553 12.4154 12.1161 12.45 12.0879C14.9848 10.2951 17.7374 8.70488 20.342 6.99226C21.9427 5.94618 23.5234 4.69102 25.1809 3.58988C22.0984 4.19381 18.883 4.57458 16.1198 5.27221C13.2482 6.00498 10.3937 6.78576 7.57175 7.65031C6.90817 7.85005 6.16026 8.20675 5.40883 8.52656C6.56323 9.04954 7.68437 9.61293 8.81522 10.1506Z" fill="#FEFEFE"/>
<path d="M16.0456 32.1118C16.1287 31.6819 16.5123 31.4095 16.8075 31.1208C17.2507 30.6938 17.693 30.2545 18.1229 29.8164C18.4737 29.4603 18.8257 29.1165 19.2035 28.7827C19.3973 28.6028 19.6632 28.528 19.836 28.3874C20.0211 28.2457 20.3286 28.477 20.1997 28.6877C20.1031 28.8459 20.0873 29.0708 19.9549 29.2449C19.6492 29.6836 19.3031 30.0889 18.957 30.4942C18.554 30.9544 18.1522 31.4271 17.7358 31.8764C17.4331 32.2155 17.1039 32.6687 16.6119 32.7156C16.2687 32.7607 15.9776 32.4408 16.0456 32.1118Z" fill="#FEFEFE"/>
<path d="M11.9528 31.6206C12.3597 31.0729 13.0586 30.721 13.5734 30.2624C14.2475 29.652 14.798 28.917 15.4587 28.2956C15.8007 27.9775 16.2722 28.367 16.011 28.7519C15.5466 29.4788 14.9768 30.1411 14.391 30.7679C13.8732 31.3261 13.2179 32.1332 12.4536 32.3177C12.0278 32.4076 11.6657 31.9955 11.9528 31.6206Z" fill="#FEFEFE"/>
<path d="M8.2384 30.4104C8.34675 30.1147 8.51308 30.0368 8.77183 29.888C9.05412 29.7246 9.30609 29.502 9.5591 29.2918C10.1342 28.8151 10.6272 28.2592 11.1609 27.7367C11.5006 27.3941 12.0371 27.8146 11.7536 28.2263C11.3055 28.8648 10.7644 29.4376 10.2073 29.9745C9.76528 30.4138 9.23349 31.085 8.58338 31.0352C8.25881 31.0168 8.14986 30.6548 8.2384 30.4104Z" fill="#FEFEFE"/>
<path d="M5.28165 27.2544C5.57508 27.0776 6.1789 26.5111 6.54553 26.1908C7.1394 25.6502 7.69169 25.0639 8.24397 24.4776C8.59362 24.1092 9.17053 24.5631 8.86364 24.9895C8.33654 25.7099 7.73108 26.3881 7.11086 27.0429C6.65989 27.5202 6.17263 28.1377 5.45503 28.0322C5.10244 27.9789 4.95251 27.4472 5.28165 27.2544Z" fill="#FEFEFE"/>
<path d="M3.81325 23.1745C4.1377 22.672 4.81417 22.3471 5.28564 21.9546C5.90645 21.4363 6.42841 20.7908 6.92563 20.1476C7.16926 19.839 7.73447 20.17 7.53241 20.5242C7.12947 21.2452 6.62991 21.8638 6.09227 22.4735C5.64364 22.9755 5.04744 23.7521 4.39616 23.9507C3.86541 24.1129 3.53096 23.5986 3.81325 23.1745Z" fill="#FEFEFE"/>
<path d="M3.11028 19.4439C4.00402 18.9243 4.83919 18.3111 5.53262 17.5128C5.75635 17.2557 6.17805 17.5134 6.04745 17.8361C5.7517 18.5096 5.27203 19.0766 4.74832 19.5733C4.33952 19.9721 3.93202 20.3833 3.31165 20.2562C2.94572 20.1918 2.7577 19.6512 3.11028 19.4439Z" fill="#FEFEFE"/>
<path d="M0.47245 17.2873C0.661025 16.6612 1.65375 16.2688 2.22466 15.8793C2.60957 15.6192 3.45047 14.8069 3.97713 14.9925C3.98943 14.9913 3.98943 14.9913 4.00278 15.0025C4.01638 15.0136 4.04097 15.0113 4.05432 15.0224L4.04202 15.0236C4.15845 15.0745 4.25639 15.1893 4.21878 15.317C4.28496 15.0997 4.22757 15.5396 4.18541 15.618C4.12333 15.7481 4.00736 15.8336 3.90487 15.9302C3.60852 16.2067 3.28535 16.4609 2.97541 16.7262C2.48169 17.1456 1.69045 18.0897 0.989969 18.0323C0.676749 18.0001 0.377577 17.5942 0.47245 17.2873Z" fill="#FEFEFE"/>
</svg>
