<svg width="158" height="80" viewBox="0 0 158 80" fill="none" xmlns="http://www.w3.org/2000/svg">
<g clip-path="url(#clip0)">
<path d="M65.5112 73.6469H66.2172V76.4221H69.8144V73.6469H70.5203V79.884H69.8144V77.0797H66.2172V79.884H65.5112V73.6469Z" fill="#ECAC7F"/>
<path d="M71.9998 76.7412C71.9998 75.8975 72.3349 75.0883 72.9316 74.4916C73.5282 73.895 74.3374 73.5598 75.1812 73.5598C76.0249 73.5598 76.8342 73.895 77.4308 74.4916C78.0274 75.0883 78.3626 75.8975 78.3626 76.7412V76.7412C78.3626 77.585 78.0274 78.3942 77.4308 78.9908C76.8342 79.5875 76.0249 79.9226 75.1812 79.9226C74.3374 79.9226 73.5282 79.5875 72.9316 78.9908C72.3349 78.3942 71.9998 77.585 71.9998 76.7412ZM77.6374 76.7412C77.649 76.41 77.5943 76.0799 77.4764 75.7702C77.3585 75.4604 77.1799 75.1774 76.9511 74.9378C76.7222 74.6981 76.4477 74.5066 76.1438 74.3746C75.8398 74.2426 75.5125 74.1727 75.1812 74.169C74.8499 74.1687 74.522 74.2355 74.2174 74.3657C73.9127 74.4958 73.6376 74.6865 73.4089 74.9261C73.1801 75.1657 73.0024 75.4493 72.8865 75.7596C72.7706 76.07 72.7189 76.4006 72.7347 76.7316V76.7316C72.723 77.0627 72.7778 77.3929 72.8956 77.7026C73.0135 78.0123 73.1921 78.2954 73.421 78.5351C73.6498 78.7747 73.9243 78.9662 74.2282 79.0982C74.5322 79.2302 74.8595 79.3001 75.1908 79.3038C75.5221 79.3042 75.85 79.2372 76.1547 79.1071C76.4593 78.977 76.7344 78.7863 76.9632 78.5467C77.1919 78.3071 77.3696 78.0235 77.4855 77.7131C77.6014 77.4028 77.6531 77.0721 77.6374 76.7412V76.7412Z" fill="#ECAC7F"/>
<path d="M79.8518 73.6469H80.5674L82.8398 77.0507L85.1123 73.6469H85.8279V79.884H85.122V74.8073L82.8495 78.1531L80.5384 74.8073V79.855H79.8518V73.6469Z" fill="#ECAC7F"/>
<path d="M87.5781 73.6469H92.0843V74.2851H88.284V76.4125H91.6879V77.0507H88.284V79.2361H92.152V79.8743H87.5975V73.6469H87.5781Z" fill="#ECAC7F"/>
<path d="M5.20902 50.632H-0.0224609V49.0074H12.2681V50.632H7.03666V64.5955H5.20902V50.632Z" fill="#ECAC7F"/>
<path d="M15.5657 49.0461H17.3256V55.9699H26.3187V49.0461H28.0787V64.6342H26.3187V57.6234H17.3256V64.6342H15.5657V49.0461Z" fill="#ECAC7F"/>
<path d="M32.4883 49.0461H43.7538V50.632H34.2192V55.9505H42.7288V57.5557H34.2192V63.0096H43.8892V64.6149H32.4883V49.0461Z" fill="#ECAC7F"/>
<path d="M46.3839 56.8885C46.364 55.819 46.5609 54.7566 46.9628 53.7653C47.3647 52.774 47.9632 51.8743 48.7223 51.1207C49.4814 50.367 50.3853 49.775 51.3795 49.3802C52.3736 48.9854 53.4375 48.7961 54.5068 48.8237C55.6423 48.7684 56.7766 48.9544 57.8351 49.3695C58.8935 49.7845 59.8519 50.4191 60.6472 51.2315L58.4618 53.7458C57.4127 52.664 55.9839 52.0328 54.4778 51.9858C53.8614 51.9993 53.254 52.136 52.6913 52.3878C52.1286 52.6396 51.6219 53.0014 51.2012 53.4519C50.7804 53.9024 50.454 54.4326 50.2411 55.0111C50.0283 55.5897 49.9333 56.205 49.9619 56.8208V56.8208C49.9253 57.4419 50.0143 58.0638 50.2234 58.6497C50.4324 59.2356 50.7574 59.7734 51.1789 60.231C51.6004 60.6885 52.1097 61.0565 52.6764 61.3129C53.2432 61.5694 53.8558 61.709 54.4778 61.7235C55.25 61.7165 56.0125 61.5506 56.7179 61.2362C57.4233 60.9218 58.0564 60.4655 58.5778 59.8959L60.7633 62.1006C59.9786 63.0189 58.9954 63.7469 57.8881 64.2293C56.7807 64.7118 55.5782 64.9362 54.3714 64.8856C53.3173 64.9013 52.2708 64.7051 51.294 64.3086C50.3172 63.9121 49.43 63.3235 48.6851 62.5776C47.9401 61.8318 47.3525 60.9438 46.9572 59.9665C46.562 58.9893 46.367 57.9425 46.3839 56.8885V56.8885Z" fill="#ECAC7F"/>
<path d="M62.3684 56.8885C62.4418 54.7409 63.3466 52.7058 64.8918 51.2125C66.437 49.7191 68.5019 48.8844 70.6508 48.8844C72.7997 48.8844 74.8646 49.7191 76.4098 51.2125C77.955 52.7058 78.8597 54.7409 78.9331 56.8885V56.8885C78.8597 59.0362 77.955 61.0714 76.4098 62.5647C74.8646 64.058 72.7997 64.8927 70.6508 64.8927C68.5019 64.8927 66.437 64.058 64.8918 62.5647C63.3466 61.0714 62.4418 59.0362 62.3684 56.8885V56.8885ZM75.3456 56.8885C75.3676 56.2542 75.262 55.622 75.0349 55.0293C74.8079 54.4366 74.4641 53.8955 74.024 53.4382C73.5838 52.9809 73.0563 52.6168 72.4727 52.3673C71.8891 52.1178 71.2613 51.9881 70.6266 51.9859C69.998 51.9828 69.3752 52.107 68.7958 52.3509C68.2164 52.5947 67.6923 52.9533 67.2551 53.405C66.8179 53.8567 66.4765 54.3922 66.2516 54.9792C66.0267 55.5662 65.9228 56.1927 65.9463 56.8209V56.8209C65.9243 57.4552 66.03 58.0875 66.257 58.6802C66.484 59.2729 66.8278 59.8139 67.2679 60.2712C67.7081 60.7285 68.2356 61.0927 68.8192 61.3422C69.4028 61.5916 70.0306 61.7213 70.6653 61.7236C71.2947 61.7279 71.9185 61.6048 72.4991 61.3615C73.0796 61.1182 73.6049 60.7598 74.0432 60.308C74.4814 59.8562 74.8236 59.3202 75.0491 58.7325C75.2746 58.1449 75.3788 57.5176 75.3553 56.8885H75.3456Z" fill="#ECAC7F"/>
<path d="M81.989 49.0461H85.1511L92.452 58.6388V49.0461H95.8365V64.6342H92.9355L85.3832 54.7225V64.6342H81.9987V49.0461H81.989Z" fill="#ECAC7F"/>
<path d="M98.8922 56.8886C98.8723 55.8191 99.0692 54.7567 99.4711 53.7653C99.873 52.774 100.472 51.8744 101.231 51.1208C101.99 50.3671 102.894 49.775 103.888 49.3803C104.882 48.9855 105.946 48.7962 107.015 48.8238C108.151 48.7679 109.285 48.9536 110.344 49.3687C111.402 49.7838 112.361 50.4187 113.156 51.2316L110.97 53.7458C109.921 52.6641 108.492 52.0329 106.986 51.9859C106.37 51.9994 105.762 52.1361 105.2 52.3879C104.637 52.6397 104.13 53.0015 103.709 53.452C103.289 53.9025 102.962 54.4327 102.749 55.0112C102.537 55.5898 102.442 56.2051 102.47 56.8209V56.8209C102.434 57.4419 102.523 58.0639 102.732 58.6498C102.941 59.2357 103.266 59.7735 103.687 60.231C104.109 60.6886 104.618 61.0566 105.185 61.313C105.751 61.5695 106.364 61.7091 106.986 61.7236C107.758 61.7165 108.521 61.5507 109.226 61.2363C109.932 60.9219 110.565 60.4656 111.086 59.896L113.272 62.1007C112.487 63.019 111.504 63.7469 110.396 64.2294C109.289 64.7119 108.087 64.9363 106.88 64.8857C105.826 64.9014 104.779 64.7052 103.802 64.3087C102.826 63.9122 101.938 63.3236 101.193 62.5777C100.448 61.8318 99.8608 60.9439 99.4655 59.9666C99.0702 58.9894 98.8753 57.9426 98.8922 56.8886V56.8886Z" fill="#ECAC7F"/>
<path d="M116.008 49.0461H127.767V52.1019H119.422V55.264H126.771V58.31H119.422V61.5785H127.883V64.6245H116.008V49.0461Z" fill="#ECAC7F"/>
<path d="M130.919 49.0461H137.282C140.995 49.0461 143.248 51.2509 143.248 54.4323C143.248 58.0393 140.444 59.9152 136.944 59.9152H134.342V64.5859H130.919V49.0461ZM137.06 56.9079C138.771 56.9079 139.777 55.8828 139.777 54.5484C139.777 53.0108 138.704 52.1889 136.992 52.1889H134.342V56.9562H137.06V56.9079Z" fill="#ECAC7F"/>
<path d="M149.437 52.2083H144.699V49.0461H157.608V52.2083H152.87V64.6342H149.437V52.2083V52.2083Z" fill="#ECAC7F"/>
<path d="M69.9982 16.3616C69.9266 16.3605 69.8566 16.3405 69.7952 16.3036L60.9858 11.1108C60.9257 11.0747 60.876 11.0237 60.8415 10.9627C60.807 10.9017 60.7888 10.8328 60.7888 10.7627C60.7888 10.6926 60.807 10.6237 60.8415 10.5627C60.876 10.5017 60.9257 10.4507 60.9858 10.4146L78.5175 0.251387C78.5789 0.214766 78.6491 0.195435 78.7206 0.195435C78.7921 0.195435 78.8623 0.214766 78.9237 0.251387L87.7137 5.44418C87.7738 5.48028 87.8235 5.53132 87.858 5.59232C87.8925 5.65332 87.9107 5.72223 87.9107 5.79231C87.9107 5.8624 87.8925 5.9313 87.858 5.99231C87.8235 6.05331 87.7738 6.10432 87.7137 6.14042L70.2013 16.3036C70.1401 16.341 70.0699 16.361 69.9982 16.3616V16.3616ZM61.9818 10.7724L69.9982 15.4913L86.708 5.82132L78.7012 1.07334L61.9818 10.7724Z" fill="#ECAC7F"/>
<path d="M69.9981 16.5744C69.8891 16.5731 69.7824 16.5431 69.6887 16.4873L60.8793 11.2945C60.7872 11.2397 60.7108 11.1618 60.6578 11.0686C60.6048 10.9753 60.5769 10.8699 60.5769 10.7627C60.5769 10.6554 60.6048 10.55 60.6578 10.4568C60.7108 10.3635 60.7872 10.2857 60.8793 10.2308L78.4111 0.0676363C78.5051 0.0133182 78.6118 -0.0152588 78.7205 -0.0152588C78.8291 -0.0152588 78.9358 0.0133182 79.0299 0.0676363L87.82 5.26043C87.9121 5.31527 87.9885 5.39315 88.0415 5.48639C88.0945 5.57963 88.1224 5.68504 88.1224 5.7923C88.1224 5.89955 88.0945 6.00496 88.0415 6.0982C87.9885 6.19144 87.9121 6.26929 87.82 6.32413L70.3269 16.497C70.2266 16.5528 70.1128 16.5795 69.9981 16.5744V16.5744ZM78.7012 0.415772H78.6044L61.0727 10.5789C61.0447 10.5963 61.0216 10.6205 61.0056 10.6493C60.9896 10.678 60.9812 10.7104 60.9812 10.7433C60.9812 10.7763 60.9896 10.8086 61.0056 10.8374C61.0216 10.8662 61.0447 10.8904 61.0727 10.9077L69.8821 16.1005C69.9115 16.1175 69.9449 16.1264 69.9788 16.1264C70.0128 16.1264 70.0461 16.1175 70.0755 16.1005L87.5879 5.93734C87.6159 5.91999 87.639 5.89578 87.655 5.86702C87.671 5.83825 87.6794 5.80586 87.6794 5.77294C87.6794 5.74001 87.671 5.70765 87.655 5.67889C87.639 5.65012 87.6159 5.62591 87.5879 5.60856L78.7979 0.415772H78.7012ZM69.9981 15.7427L61.5659 10.7723L78.7012 0.831575L87.1141 5.80197L69.9981 15.7427ZM62.4072 10.7723L70.0078 15.2496L86.3018 5.7923L78.7012 1.31508L62.4072 10.7723Z" fill="#ECAC7F"/>
<path d="M78.7783 41.2716C78.69 41.2703 78.6046 41.2402 78.5349 41.186C78.4653 41.1318 78.4151 41.0563 78.3922 40.9711C78.3692 40.8858 78.3747 40.7954 78.4077 40.7136C78.4407 40.6317 78.4996 40.5628 78.5752 40.5173L86.8141 35.75L69.9979 26.0123L61.3916 31.0891C61.3459 31.124 61.2932 31.1488 61.2371 31.1619C61.181 31.1749 61.1228 31.1759 61.0663 31.1647C61.0099 31.1535 60.9564 31.1305 60.9095 31.097C60.8626 31.0636 60.8234 31.0207 60.7943 30.9709C60.7653 30.9212 60.7472 30.8658 60.7412 30.8086C60.7352 30.7513 60.7415 30.6934 60.7595 30.6388C60.7776 30.5841 60.8071 30.5339 60.8461 30.4915C60.885 30.4491 60.9325 30.4155 60.9855 30.3928L69.7949 25.2C69.8566 25.1644 69.9266 25.1456 69.9979 25.1456C70.0692 25.1456 70.1393 25.1644 70.201 25.2L87.7908 35.4116C87.8508 35.4477 87.9006 35.4987 87.9351 35.5597C87.9696 35.6207 87.9877 35.6896 87.9877 35.7597C87.9877 35.8298 87.9696 35.8987 87.9351 35.9597C87.9006 36.0207 87.8508 36.0717 87.7908 36.1078L78.9524 41.2232C78.8989 41.2525 78.8393 41.2691 78.7783 41.2716V41.2716Z" fill="#ECAC7F"/>
<path d="M78.7783 41.4843C78.6434 41.4828 78.5127 41.4372 78.406 41.3545C78.2994 41.2718 78.2227 41.1565 78.1876 41.0262C78.1526 40.8959 78.1611 40.7577 78.2119 40.6326C78.2627 40.5076 78.3529 40.4026 78.4689 40.3336L86.3887 35.75L69.998 26.2637L61.527 31.2921C61.458 31.334 61.3813 31.3617 61.3014 31.3737C61.2216 31.3856 61.1402 31.3816 61.0619 31.3618C60.9836 31.342 60.91 31.3068 60.8455 31.2584C60.7809 31.2099 60.7266 31.1491 60.6857 31.0794C60.6038 30.9393 60.5802 30.7726 60.62 30.6152C60.6598 30.4579 60.7598 30.3224 60.8985 30.2381L69.7079 25.0453C69.802 24.991 69.9087 24.9624 70.0173 24.9624C70.1259 24.9624 70.2327 24.991 70.3267 25.0453L87.9165 35.2569C88.0087 35.3117 88.085 35.3895 88.138 35.4828C88.1911 35.576 88.2189 35.6814 88.2189 35.7887C88.2189 35.8959 88.1911 36.0014 88.138 36.0946C88.085 36.1878 88.0087 36.2657 87.9165 36.3206L79.0781 41.436C78.9839 41.4771 78.8807 41.4938 78.7783 41.4843ZM69.998 25.7706L87.2106 35.7597L78.701 40.7011C78.6579 40.7272 78.6267 40.7691 78.6141 40.8178C78.6015 40.8666 78.6083 40.9184 78.6333 40.9622C78.6594 41.0052 78.7013 41.0364 78.7501 41.049C78.7989 41.0617 78.8506 41.0548 78.8944 41.0299L87.7328 35.9144C87.7608 35.8971 87.7839 35.8729 87.7999 35.8441C87.8159 35.8153 87.8243 35.7829 87.8243 35.75C87.8243 35.7171 87.8159 35.6847 87.7999 35.656C87.7839 35.6272 87.7608 35.603 87.7328 35.5856L70.1334 25.3741C70.104 25.3571 70.0706 25.3482 70.0367 25.3482C70.0027 25.3482 69.9694 25.3571 69.94 25.3741L61.1306 30.5669C61.0994 30.5868 61.0746 30.6153 61.0591 30.6489C61.0436 30.6825 61.0381 30.7198 61.0432 30.7564C61.0483 30.7931 61.0638 30.8275 61.0878 30.8556C61.1119 30.8837 61.1435 30.9043 61.1789 30.915C61.2018 30.9248 61.2265 30.9299 61.2514 30.9299C61.2764 30.9299 61.3011 30.9248 61.324 30.915L69.998 25.7706Z" fill="#ECAC7F"/>
<path d="M69.998 36.2915C69.9264 36.2904 69.8563 36.2703 69.7949 36.2334L60.9855 31.1277C60.9243 31.0923 60.8734 31.0416 60.8378 30.9806C60.8022 30.9195 60.7831 30.8502 60.7825 30.7795V10.8206C60.785 10.7146 60.8289 10.6138 60.9048 10.5397C60.9807 10.4656 61.0826 10.4242 61.1886 10.4242C61.2947 10.4267 61.3955 10.4706 61.4696 10.5465C61.5437 10.6224 61.5851 10.7243 61.5851 10.8303V30.5571L69.5918 35.1987V15.9748C69.5944 15.8687 69.6383 15.7679 69.7142 15.6938C69.7901 15.6197 69.8919 15.5783 69.998 15.5783C70.104 15.5808 70.2048 15.6247 70.2789 15.7006C70.353 15.7765 70.3945 15.8784 70.3945 15.9844V35.9046C70.3896 36.0073 70.346 36.1044 70.2724 36.1761C70.1988 36.2479 70.1008 36.2891 69.998 36.2915V36.2915Z" fill="#ECAC7F"/>
<path d="M69.9981 36.5043C69.889 36.5031 69.7823 36.473 69.6886 36.4173L60.8502 31.2922C60.7567 31.2382 60.679 31.1607 60.6247 31.0674C60.5704 30.9741 60.5415 30.8683 60.5408 30.7603V10.8014C60.5596 10.6518 60.6323 10.5143 60.7454 10.4145C60.8585 10.3148 61.0041 10.2598 61.1548 10.2598C61.3056 10.2598 61.4512 10.3148 61.5642 10.4145C61.6773 10.5143 61.75 10.6518 61.7689 10.8014V30.4122L69.3501 34.8121V15.9556C69.369 15.806 69.4417 15.6684 69.5548 15.5687C69.6679 15.4689 69.8134 15.4139 69.9642 15.4139C70.115 15.4139 70.2605 15.4689 70.3736 15.5687C70.4867 15.6684 70.5594 15.806 70.5783 15.9556V35.8758C70.5811 36.0351 70.5223 36.1893 70.4142 36.3064C70.3061 36.4235 70.1571 36.4944 69.9981 36.5043ZM61.2273 10.6274C61.176 10.6274 61.1269 10.6477 61.0906 10.684C61.0543 10.7203 61.034 10.7695 61.034 10.8208V30.7797C61.0345 30.8131 61.0437 30.8458 61.0606 30.8746C61.0776 30.9034 61.1017 30.9274 61.1306 30.9441L69.94 36.0498C69.9694 36.0668 70.0028 36.0758 70.0367 36.0758C70.0707 36.0758 70.104 36.0668 70.1334 36.0498C70.1624 36.0331 70.1865 36.0092 70.2034 35.9804C70.2204 35.9516 70.2296 35.9189 70.2301 35.8854V15.9652C70.2366 15.9369 70.2366 15.9075 70.2301 15.8792C70.2236 15.8508 70.2109 15.8243 70.1928 15.8016C70.1746 15.7789 70.1517 15.7606 70.1255 15.748C70.0993 15.7354 70.0706 15.7288 70.0416 15.7288C70.0125 15.7288 69.9839 15.7354 69.9577 15.748C69.9315 15.7606 69.9085 15.7789 69.8904 15.8016C69.8723 15.8243 69.8595 15.8508 69.853 15.8792C69.8466 15.9075 69.8466 15.9369 69.853 15.9652V35.5567L61.4207 30.6636V10.8111C61.4196 10.7848 61.413 10.759 61.4015 10.7354C61.3901 10.7117 61.3738 10.6906 61.3539 10.6734C61.334 10.6562 61.3108 10.6433 61.2857 10.6353C61.2606 10.6274 61.2342 10.6247 61.208 10.6274H61.2273Z" fill="#ECAC7F"/>
<path d="M87.4912 16.41C87.4195 16.4094 87.3494 16.3893 87.2882 16.352L78.4885 11.2656C78.4272 11.2303 78.3763 11.1795 78.3407 11.1185C78.3051 11.0574 78.286 10.9881 78.2854 10.9175V0.599576C78.286 0.528589 78.3052 0.458994 78.3411 0.397753C78.377 0.336512 78.4284 0.285746 78.49 0.250525C78.5517 0.215305 78.6215 0.196863 78.6924 0.197023C78.7634 0.197182 78.8331 0.215943 78.8946 0.25144L87.6943 5.44423C87.7537 5.48077 87.8027 5.53199 87.8366 5.59296C87.8705 5.65394 87.8881 5.72262 87.8877 5.79237V16.0039C87.8877 16.11 87.8463 16.2118 87.7722 16.2877C87.6981 16.3636 87.5973 16.4075 87.4912 16.41V16.41ZM79.0977 10.6951L87.0948 15.3173V6.03412L79.1364 1.31515L79.0977 10.6951Z" fill="#ECAC7F"/>
<path d="M87.4912 16.6227C87.3822 16.6215 87.2754 16.5915 87.1817 16.5357L78.382 11.4493C78.2886 11.3953 78.2108 11.3178 78.1565 11.2245C78.1022 11.1312 78.0733 11.0254 78.0726 10.9174V0.599538C78.0707 0.486138 78.0999 0.374382 78.1572 0.276486C78.2145 0.17859 78.2975 0.0983051 78.3973 0.0444155C78.4971 -0.00947415 78.6098 -0.0349024 78.7231 -0.0290953C78.8363 -0.0232881 78.9458 0.0135361 79.0396 0.0773492L87.8393 5.27014C87.931 5.32531 88.0068 5.40333 88.0593 5.49655C88.1119 5.58976 88.1394 5.69501 88.1391 5.80201V16.0135C88.1379 16.0965 88.12 16.1783 88.0865 16.2543C88.053 16.3302 88.0046 16.3986 87.9442 16.4554C87.8838 16.5122 87.8125 16.5564 87.7347 16.5851C87.6569 16.6138 87.5741 16.6266 87.4912 16.6227V16.6227ZM78.7011 0.425455H78.6044C78.5755 0.442164 78.5514 0.466112 78.5344 0.494923C78.5175 0.523734 78.5083 0.556437 78.5077 0.589859V10.9078C78.5083 10.9412 78.5175 10.9739 78.5344 11.0027C78.5514 11.0315 78.5755 11.0554 78.6044 11.0721L87.4042 16.1586C87.4336 16.1756 87.4669 16.1845 87.5009 16.1845C87.5348 16.1845 87.5682 16.1756 87.5976 16.1586C87.6265 16.1419 87.6506 16.118 87.6676 16.0891C87.6845 16.0603 87.6937 16.0276 87.6942 15.9942V5.78265C87.6937 5.74923 87.6845 5.71653 87.6676 5.68771C87.6506 5.6589 87.6265 5.63498 87.5976 5.61828L78.7979 0.425455H78.7011ZM87.2688 15.6847L78.8462 10.8497V0.976653L87.2688 5.94705V15.6847ZM79.2717 10.579L86.8433 14.9498V6.15011L79.2717 1.68257V10.579Z" fill="#ECAC7F"/>
<path d="M87.5297 16.3907C87.4415 16.3894 87.356 16.3594 87.2863 16.3052C87.2167 16.2509 87.1665 16.1755 87.1436 16.0902C87.1206 16.005 87.1261 15.9146 87.1591 15.8327C87.1922 15.7508 87.251 15.6819 87.3267 15.6365L95.3431 10.9659L87.317 6.13087C87.2428 6.06854 87.1933 5.9817 87.1775 5.88608C87.1617 5.79046 87.1806 5.69235 87.2308 5.60945C87.281 5.52655 87.3592 5.46433 87.4513 5.43404C87.5433 5.40375 87.6432 5.40738 87.7328 5.44428L96.3391 10.6177C96.3992 10.6538 96.4489 10.7049 96.4834 10.7659C96.5179 10.8269 96.5361 10.8958 96.5361 10.9659C96.5361 11.036 96.5179 11.1048 96.4834 11.1658C96.4489 11.2268 96.3992 11.2779 96.3391 11.314L87.7328 16.323C87.6726 16.3638 87.6024 16.3872 87.5297 16.3907V16.3907Z" fill="#ECAC7F"/>
<path d="M87.5297 16.6035C87.3977 16.5988 87.2706 16.5519 87.1671 16.4698C87.0636 16.3876 86.9891 16.2745 86.9545 16.147C86.92 16.0194 86.9271 15.8842 86.9749 15.761C87.0227 15.6378 87.1087 15.5332 87.2203 15.4624L94.9563 10.9755L87.2203 6.33392C87.1394 6.29905 87.0669 6.24732 87.0076 6.18218C86.9483 6.11704 86.9036 6.03999 86.8765 5.95619C86.8494 5.87239 86.8405 5.78375 86.8503 5.69623C86.8602 5.6087 86.8886 5.52429 86.9338 5.44864C86.9789 5.37299 87.0396 5.30785 87.1119 5.25756C87.1843 5.20726 87.2665 5.17296 87.3531 5.15698C87.4397 5.14101 87.5287 5.14373 87.6142 5.16492C87.6997 5.18611 87.7797 5.22531 87.8488 5.27989L96.4551 10.4534C96.5451 10.5088 96.6194 10.5863 96.671 10.6785C96.7225 10.7708 96.7496 10.8747 96.7496 10.9804C96.7496 11.086 96.7225 11.1899 96.671 11.2822C96.6194 11.3744 96.5451 11.452 96.4551 11.5074L87.8488 16.5164C87.7525 16.5743 87.6421 16.6044 87.5297 16.6035V16.6035ZM87.5297 5.60867C87.4943 5.61935 87.4627 5.63997 87.4386 5.66808C87.4146 5.69618 87.3991 5.73059 87.394 5.76723C87.3889 5.80388 87.3944 5.84123 87.4099 5.87483C87.4254 5.90843 87.4502 5.93685 87.4814 5.95678L95.8169 10.9659L87.404 15.8202C87.361 15.8463 87.3298 15.8882 87.3171 15.937C87.3045 15.9858 87.3114 16.0375 87.3363 16.0813C87.3624 16.1243 87.4044 16.1555 87.4531 16.1682C87.5019 16.1808 87.5537 16.1739 87.5974 16.149L96.2037 11.1399C96.2317 11.1226 96.2548 11.0984 96.2708 11.0696C96.2868 11.0408 96.2952 11.0084 96.2952 10.9755C96.2952 10.9426 96.2868 10.9102 96.2708 10.8814C96.2548 10.8527 96.2317 10.8285 96.2037 10.8111L87.5974 5.63768L87.5297 5.60867Z" fill="#ECAC7F"/>
<path d="M78.7009 41.3393C78.6292 41.3386 78.5591 41.3186 78.4979 41.2812L69.7949 36.2335C69.7348 36.1974 69.6851 36.1464 69.6505 36.0854C69.616 36.0243 69.5979 35.9554 69.5979 35.8854C69.5979 35.8153 69.616 35.7464 69.6505 35.6854C69.6851 35.6244 69.7348 35.5734 69.7949 35.5373L87.2879 25.3837C87.3493 25.3471 87.4195 25.3278 87.491 25.3278C87.5625 25.3278 87.6326 25.3471 87.694 25.3837L96.397 30.4895C96.4571 30.5256 96.5068 30.5766 96.5413 30.6376C96.5759 30.6986 96.594 30.7675 96.594 30.8376C96.594 30.9077 96.5759 30.9766 96.5413 31.0376C96.5068 31.0986 96.4571 31.1496 96.397 31.1857L78.991 41.2909C78.9037 41.3427 78.8003 41.3599 78.7009 41.3393ZM70.8005 35.895L78.7009 40.4786L95.3527 30.8086L87.491 26.1767L70.8005 35.895Z" fill="#ECAC7F"/>
<path d="M78.7009 41.552C78.5919 41.5508 78.4851 41.5208 78.3914 41.465L69.6884 36.4172C69.5962 36.3624 69.5199 36.2846 69.4669 36.1913C69.4139 36.0981 69.386 35.9927 69.386 35.8854C69.386 35.7782 69.4139 35.6727 69.4669 35.5795C69.5199 35.4863 69.5962 35.4084 69.6884 35.3536L87.1815 25.2001C87.2752 25.1448 87.3821 25.1156 87.4909 25.1156C87.5997 25.1156 87.7066 25.1448 87.8003 25.2001L96.5034 30.3058C96.5955 30.3607 96.6719 30.4385 96.7249 30.5318C96.7779 30.625 96.8058 30.7304 96.8058 30.8377C96.8058 30.9449 96.7779 31.0503 96.7249 31.1436C96.6719 31.2368 96.5955 31.3147 96.5034 31.3695L79.0973 41.4747C78.9776 41.5441 78.838 41.5713 78.7009 41.552V41.552ZM87.4909 25.5482H87.3942L69.9012 35.7017C69.8732 35.719 69.8501 35.7432 69.834 35.772C69.818 35.8008 69.8096 35.8332 69.8096 35.8661C69.8096 35.899 69.818 35.9314 69.834 35.9601C69.8501 35.9889 69.8732 36.0131 69.9012 36.0305L78.6042 41.0782C78.6336 41.0952 78.6669 41.1041 78.7009 41.1041C78.7348 41.1041 78.7682 41.0952 78.7976 41.0782L96.2036 30.9827C96.2316 30.9654 96.2547 30.9412 96.2707 30.9124C96.2867 30.8836 96.2951 30.8513 96.2951 30.8183C96.2951 30.7854 96.2867 30.753 96.2707 30.7243C96.2547 30.6955 96.2316 30.6713 96.2036 30.6539L87.5006 25.5482H87.4909ZM78.7009 40.7107L70.3847 35.8757L87.5006 25.935L95.7781 30.77L78.7009 40.7107ZM71.2259 35.8757L78.7009 40.2079L94.9368 30.8087L87.4619 26.4571L71.2259 35.8757Z" fill="#ECAC7F"/>
</g>
<defs>
<clipPath id="clip0">
<rect width="157.615" height="80" fill="white"/>
</clipPath>
</defs>
</svg>
