<svg width="32" height="32" viewBox="0 0 32 32" fill="none" xmlns="http://www.w3.org/2000/svg">
<circle cx="16" cy="16" r="16" fill="#200E35"/>
<path d="M14.9985 19.8643C17.9449 19.8643 20.3334 17.4758 20.3334 14.5294C20.3334 11.583 17.9449 9.19446 14.9985 9.19446C12.0521 9.19446 9.66357 11.583 9.66357 14.5294C9.66357 17.4758 12.0521 19.8643 14.9985 19.8643Z" fill="#FF9C33"/>
<path d="M8.05469 19.6816C10.317 24.1216 15.7503 25.887 20.1904 23.6247C24.6304 21.3624 26.3958 15.9291 24.1335 11.489L8.05469 19.6816Z" fill="#27D64C"/>
<path d="M8.69263 19.3564C10.7754 23.4441 15.7775 25.0694 19.8652 22.9866C23.9528 20.9039 25.5781 15.9017 23.4953 11.8141L8.69263 19.3564Z" fill="#FEFFD9"/>
<path d="M9.39453 18.9989C11.2798 22.6989 15.8076 24.1701 19.5076 22.2848C23.2076 20.3996 24.6788 15.8718 22.7935 12.1718L9.39453 18.9989Z" fill="#EB4A51"/>
<path d="M11.074 18.1433L20.2298 13.4781C20.2977 13.818 20.3334 14.1695 20.3334 14.5294C20.3334 17.4758 17.9448 19.8643 14.9984 19.8643C13.4462 19.8643 12.0489 19.2014 11.074 18.1433Z" fill="#B2001F"/>
<path d="M9.59175 8.04871C9.25816 10.006 10.0921 10.9847 12.0937 10.9847C12.4273 9.02737 11.6648 8.04871 9.8062 8.04871H9.59175Z" fill="#20BF5D"/>
<path d="M12.0981 10.9846C13.3148 10.1063 13.3736 9.13648 12.2747 8.07521C10.9734 8.87192 10.9146 9.84174 12.0981 10.9846Z" fill="#03D152"/>
<path d="M11.6126 8.60742C11.0054 9.29162 11.1659 10.0828 12.0941 10.9809C12.2812 9.87941 12.1207 9.08825 11.6126 8.60742Z" fill="#037E32"/>
</svg>
