<svg width="226" height="80" viewBox="0 0 226 80" fill="none" xmlns="http://www.w3.org/2000/svg">
<path d="M90.9281 51.2423C88.1748 51.2423 88.1748 49.1277 88.1748 48.4934V43.489H89.0926V48.6343C89.0926 49.7621 89.5868 50.5374 91.2105 50.5374C92.4106 50.5374 92.9754 49.4097 92.9754 48.3524V43.5595H93.8931V48.4229C93.8931 49.3392 93.5402 51.2423 90.9281 51.2423ZM98.8349 51.1013H97.9171V43.5595H98.6937L102.506 49.0573C102.647 49.2687 102.788 49.6211 102.788 49.6211V43.5595H103.706V51.1718H102.929L99.1173 45.815C98.9761 45.6035 98.7643 45.1806 98.7643 45.1806V51.1013H98.8349ZM108.648 51.1013H107.73V43.5595H108.648V51.1013ZM113.095 43.5595L115.213 49.5507C115.284 49.6916 115.284 49.9031 115.284 49.9031C115.284 49.7621 115.354 49.6211 115.354 49.5507L117.472 43.5595H118.461L115.778 51.1013H114.79L112.036 43.489H113.095V43.5595ZM121.991 43.5595H126.579V44.3348H122.908V46.6608H125.873V47.4361H122.908V50.2555H126.72L126.862 51.0308H121.991V43.5595ZM132.509 44.3348H131.239V51.1013H130.321V43.5595H132.651C134.627 43.5595 135.192 44.4053 135.192 45.815C135.192 46.7313 134.768 47.6476 133.639 48.0705L135.616 51.1718H134.557L132.227 47.5066C133.78 47.5066 134.274 46.6608 134.274 45.8855C134.274 44.8987 133.992 44.3348 132.509 44.3348ZM138.934 49.7621C139.428 50.1145 140.134 50.5374 141.334 50.5374C142.534 50.5374 143.028 49.9031 143.028 49.1982C143.028 48.4229 142.463 48.141 141.263 47.718C139.851 47.1542 139.075 46.7313 139.075 45.6035C139.075 44.3348 139.922 43.489 141.546 43.489C142.675 43.489 143.452 43.9824 143.805 44.1938L143.381 44.8987C143.099 44.6167 142.463 44.2643 141.546 44.2643C140.346 44.2643 139.993 44.8987 139.993 45.6035C139.993 46.1674 140.699 46.5903 141.828 47.0132C143.028 47.5066 143.946 48 143.946 49.2687C143.946 50.6079 143.099 51.3833 141.405 51.3833C139.993 51.3833 139.216 50.9603 138.722 50.6079L138.934 49.7621ZM148.394 51.1013H147.476V43.5595H148.394V51.1013ZM157.006 44.3348H154.959V51.1013H154.041V44.3348H151.994V43.5595H157.077V44.3348H157.006ZM166.254 43.5595L163.572 48.0705V51.1718H162.654V48.0705L159.971 43.5595H161.03L163.078 47.1542L165.196 43.5595H166.254ZM177.832 51.2423C175.079 51.2423 174.655 49.4097 174.655 47.2951C174.655 45.1101 175.432 43.348 178.044 43.348C180.727 43.348 181.221 44.9692 181.221 47.2951C181.15 49.5506 180.374 51.2423 177.832 51.2423ZM177.832 44.1938C176.491 44.1938 175.573 45.1806 175.573 47.4361C175.573 49.7621 176.491 50.5374 178.115 50.5374C179.315 50.5374 180.303 49.5506 180.303 47.2951C180.233 45.1101 179.456 44.1938 177.832 44.1938ZM184.892 43.5595H189.481V44.3348H185.81V46.6608H188.775V47.4361H185.81V51.1013H184.892V43.5595ZM89.2338 65.1277L88.5278 67.1718H87.5395L90.3633 59.5595H91.3517L94.1049 67.1718H93.046L92.34 65.1277H89.2338ZM91.987 64.2819L90.9281 61.1101C90.8575 60.8282 90.7869 60.4053 90.7869 60.4053C90.7869 60.4053 90.7869 60.7577 90.6457 61.1101L89.5162 64.2819H91.987ZM99.6115 60.4053H98.3407V67.1718H97.423V59.5595H99.7526C101.729 59.5595 102.294 60.4053 102.294 61.815C102.294 63.1542 101.518 64.2819 99.1879 64.2819V63.5066H99.2585C101.023 63.5066 101.447 62.6608 101.447 61.8855C101.376 60.9692 101.094 60.4053 99.6115 60.4053ZM108.083 60.4053H106.812V67.1718H105.895V59.5595H108.224C110.201 59.5595 110.766 60.4053 110.766 61.815C110.766 63.1542 109.989 64.2819 107.659 64.2819V63.5066H107.73C109.495 63.5066 109.919 62.6608 109.919 61.8855C109.848 60.9692 109.566 60.4053 108.083 60.4053ZM115.284 66.3965H118.672L118.743 67.1718H114.366V59.5595H115.284V66.3965ZM123.191 67.1718H122.273V59.5595H123.191V67.1718ZM127.144 59.5595H131.733V60.3348H128.062V62.7313H131.027V63.5066H128.062V66.326H131.874L132.015 67.1013H127.144V59.5595ZM135.545 59.5595H138.016C140.699 59.5595 141.263 61.0396 141.263 63.3656C141.263 65.6211 140.416 67.1718 137.804 67.1718H135.545V59.5595ZM136.463 66.3965H138.087C139.287 66.3965 140.346 65.6211 140.346 63.3656C140.346 61.1806 139.569 60.4758 137.875 60.4758H136.463V66.3965ZM150.158 65.7621C150.653 66.1145 151.359 66.5374 152.559 66.5374C153.759 66.5374 154.253 65.9031 154.253 65.1982C154.253 64.4229 153.688 64.141 152.488 63.7181C151.076 63.1542 150.3 62.7313 150.3 61.6035C150.3 60.3348 151.147 59.489 152.771 59.489C153.9 59.489 154.677 59.9824 155.03 60.1938L154.606 60.8987C154.324 60.6167 153.688 60.2643 152.771 60.2643C151.57 60.2643 151.217 60.8987 151.217 61.6035C151.217 62.1674 151.923 62.5903 153.053 63.0132C154.253 63.5066 155.171 64 155.171 65.2687C155.171 66.6079 154.324 67.3833 152.629 67.3833C151.217 67.3833 150.441 66.9603 149.947 66.6079L150.158 65.7621ZM163.36 60.6872C163.007 60.4053 162.583 60.1938 161.736 60.1938C160.254 60.1938 159.407 61.1806 159.407 63.4361C159.407 65.7621 160.324 66.5374 161.736 66.5374C162.513 66.5374 163.219 66.185 163.642 65.7621L164.137 66.3965C163.572 66.8899 162.866 67.3128 161.595 67.3128C158.842 67.3128 158.489 65.4802 158.489 63.3656C158.489 61.1806 159.265 59.4185 161.948 59.4185C162.866 59.4185 163.501 59.7004 163.854 59.9824L163.36 60.6872ZM168.514 67.1718H167.596V59.5595H168.514V67.1718ZM172.538 59.5595H177.126V60.3348H173.455V62.7313H176.42V63.5066H173.455V66.326H177.268L177.409 67.1013H172.538V59.5595ZM181.786 67.1718H180.868V59.5595H181.644L185.457 65.0573C185.598 65.2687 185.739 65.6211 185.739 65.6211V59.5595H186.657V67.1718H185.88L182.068 61.815C181.927 61.6035 181.715 61.1806 181.715 61.1806V67.1718H181.786ZM195.34 60.6872C194.987 60.4053 194.564 60.1938 193.716 60.1938C192.234 60.1938 191.387 61.1806 191.387 63.4361C191.387 65.7621 192.305 66.5374 193.716 66.5374C194.493 66.5374 195.199 66.185 195.623 65.7621L196.117 66.3965C195.552 66.8899 194.846 67.3128 193.575 67.3128C190.822 67.3128 190.469 65.4802 190.469 63.3656C190.469 61.1806 191.246 59.4185 193.928 59.4185C194.846 59.4185 195.481 59.7004 195.834 59.9824L195.34 60.6872ZM199.505 59.5595H204.094V60.3348H200.423V62.7313H203.388V63.5066H200.423V66.326H204.235L204.377 67.1013H199.505V59.5595ZM207.906 65.7621C208.401 66.1145 209.106 66.5374 210.307 66.5374C211.507 66.5374 212.001 65.9031 212.001 65.1982C212.001 64.4229 211.436 64.141 210.236 63.7181C208.824 63.1542 208.048 62.7313 208.048 61.6035C208.048 60.3348 208.895 59.489 210.518 59.489C211.648 59.489 212.425 59.9824 212.777 60.1938L212.354 60.8987C212.072 60.6167 211.436 60.2643 210.518 60.2643C209.318 60.2643 208.965 60.8987 208.965 61.6035C208.965 62.1674 209.671 62.5903 210.801 63.0132C212.001 63.5066 212.919 64 212.919 65.2687C212.919 66.6079 212.072 67.3833 210.377 67.3833C208.965 67.3833 208.189 66.9603 207.695 66.6079L207.906 65.7621ZM69.255 34.9603H64.0309V12.8282H69.255V21.4273H77.0206V12.8282H82.2447V34.9603H77.0206V25.5859H69.255V34.9603ZM129.333 17.9736C128.062 17.0573 126.579 16.2819 123.897 16.2819C120.861 16.2819 119.025 19.0308 119.025 24.2467C119.025 29.533 121.002 31.6476 124.603 31.6476C125.944 31.6476 127.073 30.9427 127.85 30.2379V26.5022H122.273V22.696H133.145V31.3656C131.733 33.1277 129.262 35.5242 123.897 35.5242C115.143 35.5242 113.731 30.1674 113.731 23.9647C113.731 17.6211 116.272 12.4053 124.461 12.4053C127.85 12.4053 130.18 13.6035 131.874 14.6608L129.333 17.9736ZM149.382 35.3832C140.416 35.3832 140.416 29.1101 140.416 27.0661V12.8282H145.64V27.2775C145.64 29.6035 146.699 31.2247 150.088 31.2247C152.488 31.2247 153.618 28.8282 153.618 26.5022V12.8282H158.842V26.7136C158.912 29.533 157.712 35.3832 149.382 35.3832ZM167.172 12.8282H182.703V16.7753H172.467V21.2863H180.727V25.0925H172.467V31.0132H182.845L183.409 34.9603H167.172V12.8282ZM87.3983 35.0308H93.1166L100.882 12.6872H96.1522L87.3983 35.0308ZM100.812 26.6432H98.5525L97.1406 30.7313H102.012L103.494 35.0308H109.495L102.294 16.2114L99.8232 23.4009L100.812 26.6432ZM42.9225 12.8282H51.8883V15.0837H46.0288V17.6916H50.7587V19.8766H46.0288V23.2599H51.9589L52.3119 25.5154H42.9225V12.8282ZM22.379 15.1542H19.061V25.5859H16.0253V15.1542H12.7073V12.8987H22.379V15.1542ZM29.8622 25.5859H26.8266V12.8987H29.8622V17.8326H34.3098V12.8987H37.3454V25.5859H34.3098V20.2291H29.8622V25.5859Z" fill="white"/>
</svg>
