<svg width="128" height="80" viewBox="0 0 128 80" fill="none" xmlns="http://www.w3.org/2000/svg">
<g clip-path="url(#clip0)">
<path d="M119.223 45.4461C119.332 45.3589 119.419 45.2472 119.477 45.12C119.539 44.9454 119.566 44.7604 119.557 44.5754V26.7692C119.566 26.5812 119.539 26.3933 119.477 26.2154C119.421 26.0922 119.333 25.9861 119.223 25.9077C118.952 25.7025 118.328 25.6 117.35 25.6C116.372 25.6 115.737 25.7025 115.446 25.9077C115.336 25.986 115.248 26.0922 115.192 26.2154C115.135 26.3942 115.113 26.5822 115.127 26.7692V44.5846C115.111 44.742 115.131 44.901 115.184 45.05C115.237 45.199 115.323 45.3343 115.434 45.4461C115.704 45.6513 116.339 45.7538 117.338 45.7538C118.336 45.7538 118.965 45.6513 119.223 45.4461ZM105.963 45.5477C106.893 45.2492 107.748 44.7528 108.468 44.0923C109.115 43.4814 109.607 42.7253 109.905 41.8861C110.217 40.9966 110.371 40.0596 110.362 39.1169V26.7692C110.382 26.6097 110.364 26.4478 110.311 26.2963C110.258 26.1447 110.17 26.0075 110.055 25.8954C109.765 25.6902 109.141 25.5877 108.183 25.5877C107.186 25.5877 106.551 25.6902 106.279 25.8954C106.164 25.9695 106.073 26.0767 106.018 26.2031C105.951 26.3842 105.917 26.5759 105.917 26.7692V39.0769C105.913 39.5849 105.827 40.0888 105.662 40.5692C105.462 41.1155 105.066 41.5675 104.551 41.8369C103.853 42.2013 103.071 42.3744 102.285 42.3385C101.722 42.3507 101.16 42.2717 100.621 42.1046C100.2 41.9731 99.8148 41.7468 99.4945 41.4431C99.2026 41.1543 98.9837 40.7998 98.8559 40.4092C98.7162 39.9792 98.6478 39.5291 98.6533 39.0769V26.7692C98.6727 26.6097 98.6551 26.4478 98.6019 26.2963C98.5486 26.1447 98.4611 26.0075 98.3463 25.8954C98.0556 25.6902 97.4314 25.5877 96.4735 25.5877C95.4768 25.5877 94.8423 25.6902 94.5701 25.8954C94.4544 25.9695 94.3635 26.0767 94.3091 26.2031C94.2564 26.3868 94.2367 26.5785 94.2508 26.7692V39.1261C94.242 40.0688 94.3968 41.0058 94.7082 41.8954C95.0059 42.7345 95.4984 43.4907 96.145 44.1015C96.8647 44.7542 97.7159 45.2443 98.641 45.5385C101.031 46.2369 103.57 46.2369 105.96 45.5385L105.963 45.5477ZM84.2393 45.4461C84.3472 45.3598 84.4317 45.2476 84.4849 45.12C84.5419 44.9444 84.5669 44.7599 84.5586 44.5754V29.3784H88.9887C89.258 29.3858 89.5269 29.3537 89.7869 29.2831C89.8893 29.2487 89.9838 29.1943 90.065 29.123C90.1462 29.0517 90.2124 28.9649 90.2597 28.8677C90.4182 28.5218 90.5218 28.1533 90.5667 27.7754C90.63 27.4052 90.6659 27.0308 90.6742 26.6554C90.6807 26.476 90.661 26.2967 90.6158 26.1231C90.577 25.996 90.4943 25.8869 90.3825 25.8154C90.2874 25.7615 90.1834 25.725 90.0755 25.7077C89.8834 25.6794 89.6894 25.6671 89.4953 25.6708H75.6954C75.4261 25.6634 75.1572 25.6955 74.8972 25.7661C74.7937 25.7999 74.6981 25.8541 74.6159 25.9254C74.5336 25.9967 74.4664 26.0838 74.4182 26.1815C74.265 26.4829 74.1613 26.807 74.1112 27.1415C74.0386 27.5477 74.0027 27.9596 74.0038 28.3723C73.9969 28.5557 74.0166 28.7391 74.0621 28.9169C74.1025 29.0467 74.1902 29.1566 74.3077 29.2246C74.587 29.3455 74.8918 29.3952 75.1949 29.3692H80.1285V44.5661C80.1105 44.728 80.1315 44.8918 80.1898 45.0439C80.248 45.1959 80.3417 45.3318 80.4632 45.44C80.7333 45.6451 81.3678 45.7477 82.3666 45.7477C83.3306 45.76 83.9538 45.6595 84.2363 45.4461H84.2393Z" fill="#D40E14"/>
<path d="M3.37697 14.7692H18.9084C20.4434 14.7692 21.5763 15.2523 22.0276 17.4185C22.5311 19.8277 22.3346 21.5046 19.6176 21.6954L14.7362 22.0462C18.3312 44.7569 39.2966 52.1631 50.7203 27.6923C52.6115 23.6431 53.2286 22.9077 55.2978 23.4215C58.1038 24.12 58.4876 25.5754 57.1398 29.6462C47.2788 59.8092 14.1007 62.8338 7.59216 22.56L3.63485 22.8462C0.411291 23.0769 0.282349 20.3538 0.282349 18.84C0.282349 15.8431 1.39371 14.7692 3.37697 14.7692Z" fill="#D40E14"/>
<path d="M59.8201 11.7323C63.0009 11.7323 65.5795 9.14795 65.5795 5.95999C65.5795 2.77203 63.0009 0.187683 59.8201 0.187683C56.6393 0.187683 54.0607 2.77203 54.0607 5.95999C54.0607 9.14795 56.6393 11.7323 59.8201 11.7323Z" fill="#D40E14"/>
<path d="M28.6468 66.9385C28.613 67.3877 29.0766 67.5846 29.4204 67.6123C29.4822 67.6193 29.5447 67.6131 29.6039 67.5939C29.663 67.5747 29.7174 67.5431 29.7633 67.5011C29.8092 67.4591 29.8457 67.4078 29.8702 67.3506C29.8948 67.2933 29.9068 67.2315 29.9055 67.1692C29.9166 67.0783 29.9094 66.9861 29.8843 66.898C29.8593 66.8099 29.8169 66.7278 29.7597 66.6564C29.7025 66.585 29.6316 66.5258 29.5512 66.4823C29.4707 66.4388 29.3825 66.4118 29.2915 66.4031C29.2131 66.3928 29.1334 66.3987 29.0574 66.4204C28.9813 66.4421 28.9105 66.4792 28.8493 66.5293C28.788 66.5795 28.7377 66.6416 28.7013 66.712C28.6649 66.7823 28.6432 66.8594 28.6376 66.9385H28.6468Z" fill="white"/>
<path d="M111.443 58.9815C111.072 58.9538 110.571 59.2615 110.522 59.9785C110.504 60.1142 110.539 60.2518 110.62 60.3624C110.7 60.473 110.821 60.5482 110.955 60.5723C111.431 60.6092 111.839 60.1323 111.876 59.6031C111.891 59.5341 111.892 59.4628 111.878 59.3936C111.864 59.3244 111.836 59.2588 111.796 59.201C111.755 59.1432 111.703 59.0944 111.643 59.0576C111.583 59.0209 111.516 58.9971 111.446 58.9877L111.443 58.9815Z" fill="white"/>
<path d="M28.4441 69.9385C28.2046 69.92 28.0358 70.0677 27.8976 70.4554C27.5841 71.3149 27.3298 72.1949 27.1363 73.0892C27.1121 73.1603 27.1045 73.236 27.1142 73.3104C27.1239 73.3849 27.1505 73.4561 27.1921 73.5186C27.2336 73.5811 27.289 73.6331 27.3538 73.6707C27.4187 73.7083 27.4913 73.7304 27.5661 73.7354C27.6895 73.7169 27.8029 73.6568 27.8877 73.5651C27.9725 73.4734 28.0236 73.3555 28.0327 73.2308C28.2292 72.3908 28.4994 71.32 28.6467 70.5046C28.702 70.1354 28.6365 69.9436 28.4502 69.9292L28.4441 69.9385Z" fill="white"/>
<path d="M36.9575 69.5384C37.3289 69.5661 37.5039 68.9938 37.5254 68.7292C37.5592 68.3046 37.3627 67.7107 36.8592 67.6923C35.2689 67.6646 33.8874 69.7723 33.8229 70.8831C33.7585 71.9938 34.6334 72.7815 35.8737 72.8769C36.4018 72.9169 36.7548 72.7938 36.7763 72.5262C36.7855 72.4809 36.7845 72.4342 36.7733 72.3894C36.762 72.3447 36.7409 72.303 36.7114 72.2676C36.6819 72.2321 36.6448 72.2038 36.6029 72.1846C36.561 72.1654 36.5154 72.156 36.4693 72.1569C35.4961 72.0277 34.8514 71.8646 34.7839 71.0585C34.6304 70.3169 35.5145 68.7261 36.6566 68.5046C36.8807 68.48 36.629 68.8769 36.6044 69.1692C36.6001 69.2168 36.6058 69.2648 36.6212 69.3101C36.6366 69.3554 36.6613 69.3969 36.6937 69.432C36.7261 69.4671 36.7655 69.495 36.8094 69.5139C36.8532 69.5327 36.9005 69.5421 36.9482 69.5415L36.9575 69.5384Z" fill="white"/>
<path d="M29.4572 72.6924C29.4112 73.277 30.0098 73.4554 30.4857 73.4924C30.7008 73.5188 30.9191 73.5019 31.1276 73.4425C31.3361 73.3831 31.5306 73.2825 31.6997 73.1466C31.8688 73.0106 32.009 72.8422 32.1122 72.6511C32.2153 72.46 32.2792 72.2501 32.3001 72.0339C32.3738 71.0801 31.5111 69.8124 31.5848 68.8585C31.5882 68.8136 31.6006 68.7698 31.6213 68.7297C31.642 68.6897 31.6706 68.6543 31.7053 68.6255C31.7399 68.5968 31.78 68.5754 31.8232 68.5626C31.8663 68.5497 31.9115 68.5457 31.9562 68.5508C32.2479 68.5724 32.3062 68.8585 32.5703 68.8585C32.6905 68.8529 32.8037 68.8 32.8853 68.7113C32.9669 68.6226 33.0104 68.5053 33.0062 68.3847C33.0308 68.077 32.7667 67.6739 32.1865 67.6277C31.8207 67.5873 31.4536 67.6913 31.163 67.9176C30.8724 68.144 30.6812 68.4748 30.63 68.84C30.5563 69.7939 31.4957 71.0924 31.4159 72.1262C31.4087 72.2827 31.3402 72.4299 31.2252 72.536C31.1102 72.642 30.9581 72.6982 30.8019 72.6924C30.4059 72.6616 30.2769 72.2524 29.9607 72.2277C29.898 72.2261 29.8355 72.2369 29.7769 72.2596C29.7184 72.2822 29.6649 72.3163 29.6195 72.3598C29.5741 72.4032 29.5378 72.4553 29.5126 72.5129C29.4874 72.5705 29.4738 72.6325 29.4726 72.6954L29.4572 72.6924Z" fill="white"/>
<path d="M62.4972 65.6923C61.9691 65.6523 59.8999 66.5846 58.3096 66.5169C57.9658 66.4892 57.8798 66.2092 57.5359 66.1908C57.3517 66.1908 57.1307 66.2646 57.0478 66.6584C56.8237 67.8677 56.0193 70.5877 55.7492 71.6861C55.6724 71.9938 55.7492 72.0523 56.0807 72.0769C56.4123 72.1015 56.5597 71.6923 56.6364 71.4031C56.9219 70.48 57.4224 68.7661 57.7509 67.9384C57.9504 67.4215 58.0916 67.3231 58.3342 67.2646C59.2306 67.0123 61.3121 66.9569 62.3467 66.6492C62.7274 66.5446 62.927 66.3723 62.9423 66.1631C62.9524 66.1015 62.948 66.0385 62.9295 65.9789C62.9109 65.9194 62.8787 65.865 62.8355 65.8202C62.7922 65.7754 62.7391 65.7413 62.6804 65.7207C62.6216 65.7001 62.5589 65.6935 62.4972 65.7015V65.6923Z" fill="white"/>
<path d="M93.8455 67.3077C93.7934 67.9969 94.4841 68.3446 95.3315 68.4092C96.5748 68.5046 98.245 67.8861 98.3401 66.643C98.4506 65.2123 96.1911 64.4092 96.2709 63.4277C96.3047 62.9754 96.8604 62.6984 97.548 62.7538C98.1283 62.8 98.0945 63.2769 98.4384 63.3015C98.4876 63.3028 98.5366 63.294 98.5824 63.2758C98.6283 63.2576 98.6699 63.2302 98.7049 63.1954C98.7399 63.1607 98.7675 63.1191 98.7861 63.0734C98.8046 63.0276 98.8138 62.9786 98.8129 62.9292C98.8498 62.4523 98.2971 62.0061 97.6371 61.96C96.3415 61.8584 95.5157 62.5754 95.4481 63.4184C95.3407 64.8246 97.5173 65.5938 97.4375 66.6277C97.3853 67.2892 96.3477 67.6646 95.66 67.6092C95.2639 67.5784 94.8955 67.4984 94.9139 67.2584C94.9139 67.1538 95.0398 67 95.0521 66.8431C95.0572 66.7983 95.0532 66.7529 95.0404 66.7097C95.0276 66.6664 95.0062 66.6263 94.9775 66.5915C94.9489 66.5567 94.9135 66.5281 94.8736 66.5074C94.8336 66.4866 94.7899 66.4742 94.7451 66.4707C94.5174 66.4673 94.2972 66.5526 94.1311 66.7088C93.965 66.8649 93.8659 67.0797 93.8548 67.3077H93.8455Z" fill="white"/>
<path d="M38.0688 70.9169C38.0043 71.7661 38.6214 72.7631 39.4411 72.8154C40.7888 72.92 41.937 71.4831 42.3761 70.2892C42.5473 69.8341 42.6507 69.3561 42.6831 68.8708C42.6696 68.7742 42.6897 68.6759 42.74 68.5924C42.7903 68.5089 42.8678 68.4453 42.9594 68.4123C43.4656 68.2057 43.9942 68.0591 44.5343 67.9754C44.6939 67.9754 44.8413 67.9446 44.8413 68.2831C44.8843 68.7661 44.7953 71.3354 44.7492 71.9169C44.7093 72.4215 44.8014 72.6154 45.1452 72.64C45.8882 72.8123 47.9083 71.1015 49.5631 68.1108C49.9437 67.4677 49.9652 67.2738 49.9775 67.04C49.9855 66.9996 49.9847 66.9579 49.9752 66.9178C49.9656 66.8778 49.9475 66.8402 49.9222 66.8078C49.8968 66.7754 49.8648 66.7488 49.8282 66.7299C49.7917 66.7111 49.7515 66.7003 49.7104 66.6985C49.3389 66.6708 49.3482 67.2154 48.7679 67.9969C47.9647 69.2638 46.9928 70.415 45.879 71.4185C45.7347 71.5015 45.6426 71.3723 45.6579 71.1877C45.6849 70.1453 45.7648 69.105 45.8974 68.0708C45.9864 67.5969 46.097 67.5538 46.1307 67.1015C46.1307 66.9692 46.0908 66.5908 45.7961 66.5969C45.4523 66.5692 45.2742 66.8215 44.9119 67.0092C44.5497 67.1969 43.1313 67.6708 42.4958 67.6246C42.284 67.6092 42.0875 67.3785 41.8234 67.36C41.5594 67.3415 41.2831 67.4523 41.2647 67.6892C41.2064 68.4585 42.0261 68.4954 41.9677 69.2646C41.8879 70.2985 40.9577 72.0338 39.7665 71.9538C39.2108 71.9108 38.9683 71.2462 39.0051 70.7692C39.0481 70.2123 39.2385 69.4523 39.7205 69.0923C40.0275 68.8492 40.7336 69.0646 40.7827 68.4277C40.7895 68.3555 40.7813 68.2827 40.7585 68.2138C40.7357 68.145 40.6989 68.0816 40.6504 68.0278C40.6019 67.974 40.5428 67.9309 40.4768 67.9012C40.4107 67.8715 40.3393 67.8559 40.2669 67.8554C39.3459 67.7846 38.1731 69.48 38.0626 70.9138L38.0688 70.9169Z" fill="white"/>
<path d="M107.452 67.0769C107.682 67.0566 107.903 66.9832 108.1 66.8626C108.296 66.7419 108.462 66.5773 108.585 66.3815C109.036 65.7231 109.564 64.7538 109.923 64.2277C110.23 63.88 110.387 63.9631 110.405 64.3938C110.405 65.2461 110.405 66.7415 111.019 66.7908C111.159 66.8082 111.301 66.7695 111.412 66.683C111.524 66.5966 111.597 66.4694 111.615 66.3292C111.643 65.9569 111.354 65.7138 111.271 63.7231C111.271 63.4 111.455 62.3784 110.792 62.3261C110.485 62.3015 110.249 62.4708 110.006 62.8523C109.346 63.84 108.867 64.9323 108.29 65.5261C107.943 65.8738 107.839 65.5815 107.842 65.2185C107.845 64.8554 108.115 63.5446 108.18 62.7077C108.244 61.8708 107.759 61.6092 107.467 61.5846C107.176 61.56 106.927 61.7015 106.608 62.0523C105.969 62.7508 105.02 64.2061 104.351 64.9385C104.201 65.0831 104.06 65.2923 103.98 64.9661C103.875 64.5846 103.796 62.8123 103.728 62.3108C103.654 61.9046 103.507 61.7354 103.267 61.7169C103.115 61.7199 102.964 61.7558 102.827 61.8221C102.689 61.8885 102.567 61.9838 102.469 62.1015C101.898 62.9384 101.112 65.16 100.802 65.7477C100.676 66.0061 100.624 65.9723 100.643 65.7477C100.686 65.1908 101.134 62.9538 101.171 62.5046C101.195 62.1969 101.072 62.0431 100.888 62.0277C100.274 61.9815 99.9672 64.6554 99.8259 66.4831C99.7369 67.6492 99.8259 68.1108 100.01 68.1231C100.152 68.1244 100.292 68.0808 100.408 67.9986C100.524 67.9163 100.612 67.7995 100.658 67.6646C101.386 66.1723 102.343 63.8031 102.709 63.1477C102.825 62.9969 102.93 63.0584 102.973 63.1938C103.12 63.7108 103.175 64.9846 103.307 66.0092C103.357 66.4123 103.578 66.6246 103.765 66.6246C104.01 66.6246 104.17 66.4123 104.397 66.1138C105.159 65.1231 105.905 64.1292 106.608 63.2831C106.835 63.0861 107.068 63.0738 107.041 63.3908C106.985 64.1077 106.85 65.2831 106.866 66.1354C106.866 66.6954 107.065 67.0338 107.461 67.0585L107.452 67.0769Z" fill="white"/>
<path d="M18.3283 74.0615C19.0191 72.3261 20.0997 69.6923 20.9685 67.7323C21.1282 67.3723 21.2142 67.2984 21.8404 67.48C23.532 67.9569 25.457 68.9046 25.3434 70.3631C25.2298 71.8738 22.1045 73.5384 18.8011 74.4615C18.0673 74.6708 18.098 74.6185 18.3283 74.0523V74.0615ZM16.6336 77.0769C17.2691 77.1261 17.3367 76.5969 17.5332 76.1077C17.579 75.9574 17.6682 75.824 17.7894 75.7244C17.9107 75.6247 18.0587 75.5633 18.2147 75.5477C23.7408 73.9754 26.2828 72.0092 26.4148 70.2861C26.6175 67.6338 21.733 66.1107 17.8432 65.8123C13.0858 65.4397 8.30035 65.9381 3.72096 67.2831C3.10695 67.4738 2.83986 67.6677 2.8153 67.9846C2.80863 68.0396 2.81392 68.0954 2.83078 68.1482C2.84765 68.201 2.87571 68.2496 2.91303 68.2905C2.95036 68.3314 2.99606 68.3637 3.04702 68.3853C3.09797 68.4068 3.15298 68.4171 3.20826 68.4154C3.51527 68.44 4.09858 68.2431 4.81083 68.0061C7.18706 67.2031 12.9066 66.2031 17.6682 66.5723C18.3343 66.6235 18.9941 66.7368 19.6392 66.9107C20.1059 67.08 20.0997 67.16 19.9462 67.6031C19.1936 69.8741 18.27 72.0846 17.1832 74.2154C16.7134 75.1385 16.6551 75.1877 15.9551 75.3754C13.8644 75.9354 10.472 76.4461 9.25321 76.3508C9.069 76.3508 8.56858 76.2708 8.60236 75.8215C8.63613 75.3723 9.04751 75.2061 9.42513 75.1385C9.53718 75.1303 9.64323 75.0846 9.7262 75.0087C9.80918 74.9328 9.86426 74.8311 9.88257 74.72C9.88746 74.6607 9.8792 74.6011 9.85838 74.5454C9.83756 74.4897 9.80469 74.4393 9.76214 74.3978C9.71959 74.3563 9.6684 74.3248 9.61226 74.3055C9.55611 74.2862 9.4964 74.2796 9.43741 74.2861C9.00163 74.2762 8.57749 74.4276 8.24614 74.7115C7.91478 74.9953 7.69948 75.3916 7.64143 75.8246C7.5831 76.5661 7.94843 77.1815 8.99532 77.2615C10.4505 77.3723 14.0364 76.7692 16.1516 76.24C16.4771 76.1569 16.4586 76.2123 16.2775 76.6769C16.1793 76.9077 16.3819 77.0585 16.6459 77.0769H16.6336Z" fill="white"/>
<path d="M117.638 56.8554C116.555 56.7723 115.109 58.6308 114.289 61.3692C114.212 61.6554 114.179 61.76 113.66 61.96C113.32 62.0725 112.965 62.1347 112.607 62.1446C112.499 62.1442 112.395 62.1845 112.315 62.2575C112.235 62.3304 112.186 62.4307 112.177 62.5385C112.166 62.661 112.203 62.7831 112.28 62.8785C112.358 62.974 112.469 63.0353 112.591 63.0492C112.97 63.0303 113.34 62.9318 113.678 62.76C114.09 62.6062 114.246 62.6954 114.274 63.0462C114.39 64.3077 114.998 65.7416 116.533 65.8616C117.881 65.9662 118.903 65.2123 119.769 64.2739C119.972 64.0031 120.104 64.0862 120.22 64.2739C120.816 65.1723 121.98 66.1539 123.275 66.2523C123.89 66.3195 124.512 66.2485 125.096 66.0447C125.68 65.8409 126.212 65.5092 126.652 65.0739C126.915 64.8308 127.087 64.5052 127.14 64.1508C127.145 64.1177 127.144 64.0839 127.136 64.0515C127.127 64.0191 127.112 63.9887 127.092 63.9622C127.072 63.9357 127.046 63.9137 127.017 63.8974C126.988 63.8812 126.956 63.8711 126.922 63.8677C126.683 63.8492 126.566 64.1169 126.081 64.5323C125.749 64.8517 125.355 65.0986 124.924 65.2575C124.492 65.4164 124.032 65.4838 123.573 65.4554C122.514 65.3723 121.402 64.4431 120.948 63.7662C120.906 63.6602 120.898 63.5435 120.926 63.4329C120.954 63.3223 121.017 63.2235 121.105 63.1508C121.682 62.5816 122.302 62.0277 122.314 61.0154C122.376 60.2216 121.894 59.9169 121.442 59.88C120.623 59.8154 119.699 60.4123 119.6 61.8431C119.59 62.213 119.624 62.5829 119.702 62.9446C119.718 63.0685 119.703 63.1945 119.657 63.3108C119.611 63.4271 119.537 63.5298 119.441 63.6092C118.827 64.2769 117.86 64.9416 116.905 64.8677C115.846 64.7846 115.305 63.6708 115.241 62.7877C115.204 62.2246 115.207 62.2 115.889 61.6369C117.083 60.6369 117.958 59.5939 118.197 58.0769C118.225 57.6523 118.139 56.9046 117.663 56.8677L117.638 56.8554ZM117.144 57.7569C117.359 57.7569 117.43 58.0246 117.27 58.6216C117.193 59.0203 117.024 59.3954 116.776 59.7169C116.263 60.4462 115.508 61.12 115.318 61.1046C115.265 61.1046 115.241 61.0739 115.247 60.9939C115.318 60.0923 116.668 57.7231 117.144 57.76V57.7569ZM120.506 62.5169C120.398 62.5169 120.368 62.24 120.392 61.9231C120.441 61.2862 120.911 60.7108 121.255 60.7354C121.297 60.7435 121.337 60.7604 121.373 60.7849C121.408 60.8095 121.438 60.8413 121.46 60.8781C121.482 60.9149 121.497 60.9561 121.502 60.9988C121.507 61.0415 121.504 61.0849 121.491 61.1262C121.445 61.7108 120.718 62.5323 120.506 62.5169Z" fill="white"/>
<path d="M49.4279 69.7107C49.419 69.7684 49.4235 69.8274 49.4411 69.883C49.4587 69.9387 49.4889 69.9895 49.5293 70.0315C49.5697 70.0735 49.6193 70.1055 49.6741 70.1252C49.729 70.1448 49.7876 70.1514 49.8455 70.1446C50.1987 70.1403 50.5478 70.0683 50.8739 69.9323C51.1472 69.8461 51.1809 69.9046 51.3099 70.1538C51.7182 71.0769 52.4519 71.92 53.5357 72C54.0115 72.0369 54.9295 71.8677 54.9817 71.2061C54.9916 71.1043 54.9626 71.0026 54.9004 70.9214C54.8383 70.8403 54.7477 70.7859 54.647 70.7692C54.2755 70.7415 54.033 71.2276 53.6308 71.1969C53.2557 71.1568 52.9084 70.9797 52.6553 70.6993C52.4022 70.419 52.2609 70.055 52.2585 69.6769C52.2697 69.5851 52.3037 69.4976 52.3573 69.4224C52.411 69.3471 52.4825 69.2865 52.5655 69.2461C53.7936 68.6738 54.5887 67.8553 54.6685 66.8215C54.6864 66.7071 54.6799 66.5903 54.6492 66.4787C54.6186 66.3671 54.5646 66.2633 54.4908 66.1742C54.417 66.0851 54.3252 66.0128 54.2214 65.9621C54.1176 65.9114 54.0042 65.8834 53.8887 65.88C52.2493 65.7538 51.5002 67.5353 51.2055 68.5784C51.1539 68.6902 51.079 68.7895 50.9858 68.8697C50.8925 68.9498 50.7832 69.0089 50.6652 69.043C50.2783 69.2276 49.4863 69.1661 49.4371 69.6953L49.4279 69.7107ZM52.1419 68.3476C52.2094 67.4738 53.1151 66.7415 53.5664 66.7784C53.5951 66.7775 53.6237 66.7831 53.6501 66.7946C53.6764 66.8062 53.6999 66.8235 53.7187 66.8454C53.7375 66.8672 53.7513 66.8929 53.7589 66.9207C53.7665 66.9485 53.7679 66.9777 53.7628 67.0061C53.7107 67.6953 52.6361 68.52 52.2647 68.4892C52.2464 68.4913 52.2278 68.4889 52.2107 68.4822C52.1935 68.4755 52.1782 68.4647 52.1661 68.4508C52.1541 68.4368 52.1455 68.4202 52.1413 68.4022C52.1371 68.3842 52.1373 68.3655 52.1419 68.3476Z" fill="white"/>
<path d="M91.3587 64.1754C91.3641 64.1154 91.3558 64.055 91.3344 63.9988C91.313 63.9425 91.2792 63.8919 91.2354 63.8507C91.1916 63.8095 91.1391 63.7788 91.0817 63.761C91.0244 63.7431 90.9637 63.7386 90.9044 63.7477C90.5329 63.7477 88.9825 64.3631 88.1076 64.3015C87.6563 64.2738 87.5949 63.9784 87.1865 63.9538C86.7782 63.9292 86.4528 64.2307 86.416 64.84C86.3361 66.1661 85.6024 68.68 85.5901 68.84C85.5772 68.9068 85.5789 68.9756 85.5951 69.0417C85.6113 69.1078 85.6416 69.1696 85.6839 69.2228C85.7262 69.276 85.7795 69.3195 85.8402 69.35C85.9008 69.3806 85.9674 69.3977 86.0353 69.4C86.6186 69.4 87.0392 67.3292 87.3032 65.56C87.3523 65.1631 87.4628 65.0892 87.8098 65.0831C88.9825 65.0461 91.2912 65.0831 91.3465 64.16L91.3587 64.1754Z" fill="white"/>
<path d="M64.5785 79.2C64.5784 79.2835 64.5953 79.3661 64.628 79.4428C64.6608 79.5196 64.7088 79.5888 64.7691 79.6464C64.8294 79.704 64.9008 79.7486 64.9788 79.7777C65.0569 79.8067 65.1401 79.8196 65.2233 79.8154C66.571 79.92 68.9626 74.7692 71.2989 68.6031C71.5322 68.0062 72.3059 67.1785 72.3581 66.5138C72.3587 66.3849 72.3111 66.2603 72.2248 66.1647C72.1384 66.069 72.0195 66.0092 71.8914 65.9969C71.4125 65.9969 71.17 66.8277 70.9704 67.2277C70.3318 68.5385 68.9043 69.6123 67.7683 69.5231C67.6797 69.5094 67.5946 69.4779 67.5184 69.4305C67.4422 69.3831 67.3763 69.3207 67.3246 69.2472C67.273 69.1736 67.2368 69.0904 67.2181 69.0024C67.1994 68.9145 67.1986 68.8236 67.2157 68.7354C67.3125 67.9894 67.6025 67.2818 68.0569 66.6831C68.2933 66.3754 68.8152 66.1538 68.8521 65.6769C68.8567 65.6155 68.8487 65.5538 68.8287 65.4956C68.8087 65.4374 68.777 65.3838 68.7356 65.3383C68.6942 65.2928 68.644 65.2562 68.588 65.2309C68.532 65.2055 68.4714 65.1918 68.41 65.1908C67.5872 65.1538 66.4943 67.3723 66.3715 68.9908C66.3715 69.7385 66.7153 70.4031 67.5074 70.4646C68.1705 70.5169 69.0608 69.9969 69.7025 69.5938C69.7743 69.5353 69.8599 69.4961 69.9511 69.48C70.0033 69.48 70.0248 69.5385 70.0187 69.6185C69.9963 69.7614 69.9593 69.9016 69.9082 70.0369C68.9302 72.8371 67.5883 75.4959 65.9171 77.9446C65.4658 78.6308 64.6185 78.56 64.5693 79.2H64.5785Z" fill="white"/>
<path d="M72.4166 68.3292C72.3675 69.3323 73.2179 69.9169 74.1911 69.9908C75.677 70.1046 76.6471 68.9815 76.73 67.7077C76.8037 66.76 76.3708 65.8831 76.4077 65.4215C76.4476 64.9077 78.2712 64.8585 79.5453 64.8738C79.7878 64.8923 79.8891 64.9815 79.8768 65.1815C79.8461 65.5877 79.0479 66.8892 78.9773 67.8369C78.922 68.5415 79.2843 69.0031 80.0518 69.0677C81.2798 69.16 82.2009 67.7477 83.0083 67.1569C83.1158 67.0772 83.2275 67.0032 83.3429 66.9354C83.9569 66.5292 83.5732 68.7231 84.4328 68.7815C84.5195 68.795 84.608 68.7908 84.693 68.7692C84.778 68.7477 84.8579 68.7092 84.9278 68.6561C84.9976 68.603 85.0562 68.5363 85.0998 68.4601C85.1435 68.3838 85.1714 68.2996 85.1819 68.2123C85.2064 67.5323 84.5679 68.0031 84.6385 67.1631C84.6661 66.8123 84.8687 66.4677 84.9025 66.0338C84.9179 65.8185 84.9424 65.1108 84.5648 65.0738C83.9508 65.0277 83.1802 66.1323 82.514 66.6523C81.5285 67.4492 80.9022 67.9631 80.2237 67.9354C79.9536 67.9138 79.8308 67.7415 79.8584 67.3908C79.9198 66.6062 80.9544 65.7015 81.0035 65.0246C81.0144 64.9036 80.9996 64.7817 80.9601 64.6668C80.9206 64.5519 80.8574 64.4467 80.7744 64.3581C80.6915 64.2695 80.5908 64.1994 80.479 64.1526C80.3672 64.1057 80.2467 64.0831 80.1255 64.0862C78.044 64.3508 75.5818 64.1723 75.502 65.2277C75.4621 65.7415 76.0638 66.88 76.0116 67.5538C76.0057 67.7737 75.9562 67.9901 75.8659 68.1906C75.7756 68.391 75.6464 68.5714 75.4857 68.7212C75.3251 68.871 75.1363 68.9872 74.9304 69.0631C74.7244 69.139 74.5054 69.173 74.2862 69.1631C73.8288 69.1262 73.1933 68.9138 73.2363 68.32C73.2639 67.9415 73.4512 67.6554 73.7214 67.6769C73.9915 67.6985 74.1481 67.7908 74.4183 67.8123C74.4866 67.812 74.5542 67.7978 74.617 67.7705C74.6798 67.7433 74.7364 67.7036 74.7834 67.6539C74.8305 67.6042 74.867 67.5454 74.8907 67.4811C74.9145 67.4169 74.9251 67.3485 74.9217 67.28C74.9524 66.8738 74.4459 66.7538 74.2034 66.7354C73.9805 66.7191 73.7566 66.7481 73.5451 66.8206C73.3337 66.8931 73.139 67.0076 72.9727 67.1572C72.8065 67.3069 72.6721 67.4887 72.5776 67.6916C72.4831 67.8946 72.4304 68.1146 72.4227 68.3385L72.4166 68.3292Z" fill="white"/>
</g>
<defs>
<clipPath id="clip0">
<rect width="127.407" height="80" fill="white"/>
</clipPath>
</defs>
</svg>
